<svg width="87" height="30" viewBox="0 0 87 30" fill="none" xmlns="http://www.w3.org/2000/svg">
<path d="M77.4516 24.8971H1V2.82812H77.4516L72.4846 13.8599L77.4516 24.8971Z" fill="#F4C914"/>
<path d="M1 22.9985V4.72266C1 3.0658 2.34314 1.72266 4 1.72266L76.547 1.72266C77.0466 1.72266 77.4516 2.12767 77.4516 2.62728C77.4516 2.75827 77.4232 2.88769 77.3682 3.00661L72.9359 12.6026C72.5672 13.4007 72.5672 14.3204 72.9359 15.1186L77.3682 24.7146C77.4232 24.8335 77.4516 24.9629 77.4516 25.0939C77.4516 25.5935 77.0466 25.9985 76.547 25.9985H4C2.34315 25.9985 1 24.6554 1 22.9985Z" stroke="white" stroke-width="2"/>
<path d="M25.12 10.24C24.88 9.96 24.6 9.74667 24.28 9.6C23.96 9.44 23.6267 9.36 23.28 9.36C22.92 9.36 22.5933 9.47333 22.3 9.7C22.02 9.92667 21.88 10.3 21.88 10.82C21.88 11.26 22.0267 11.6067 22.32 11.86C22.6133 12.1 23.0467 12.3667 23.62 12.66C23.94 12.82 24.2733 13.0133 24.62 13.24C24.98 13.4533 25.3067 13.72 25.6 14.04C25.8933 14.36 26.1333 14.7467 26.32 15.2C26.52 15.64 26.62 16.1667 26.62 16.78C26.62 17.54 26.5 18.2133 26.26 18.8C26.02 19.3733 25.6933 19.8533 25.28 20.24C24.88 20.6133 24.4133 20.8933 23.88 21.08C23.3467 21.28 22.7933 21.38 22.22 21.38C21.3667 21.38 20.5867 21.22 19.88 20.9C19.1867 20.58 18.6267 20.2067 18.2 19.78L19.84 17.38C20.1467 17.7 20.5 17.96 20.9 18.16C21.3 18.3467 21.7067 18.44 22.12 18.44C22.5067 18.44 22.8333 18.3133 23.1 18.06C23.3667 17.8067 23.5 17.4533 23.5 17C23.5 16.5333 23.34 16.1667 23.02 15.9C22.7 15.62 22.2333 15.3267 21.62 15.02C21.2333 14.8333 20.8667 14.6267 20.52 14.4C20.1867 14.1733 19.8867 13.9 19.62 13.58C19.3667 13.26 19.1667 12.8867 19.02 12.46C18.8733 12.0333 18.8 11.5267 18.8 10.94C18.8 10.1533 18.9267 9.48 19.18 8.92C19.4467 8.34667 19.7867 7.88 20.2 7.52C20.6267 7.16 21.0933 6.89333 21.6 6.72C22.12 6.54667 22.64 6.46 23.16 6.46C23.9333 6.46 24.6267 6.58667 25.24 6.84C25.8533 7.09333 26.3667 7.44 26.78 7.88L25.12 10.24ZM34.7588 21L34.1788 18.42H30.9988L30.4188 21H27.2188L30.6588 6.84H34.6788L38.0988 21H34.7588ZM32.6388 9.92H32.5588L31.3588 15.94H33.7788L32.6388 9.92ZM39.3381 21V6.84H42.5781V18.04H46.3581V21H39.3381ZM47.7952 21V6.84H54.6352V9.66H50.8552V12.44H54.3352V15.08H50.8552V18.14H54.8752V21H47.7952Z" fill="white"/>
</svg>
