<svg width="33" height="12" viewBox="0 0 33 12" fill="none" xmlns="http://www.w3.org/2000/svg">
<path d="M33 12H0V0H33L30.5705 5.99882L33 12Z" fill="white"/>
<path d="M31.2471 10.8568H0.941406V1.14453H31.2471L29.2781 5.99947L31.2471 10.8568Z" fill="#F4C914"/>
<path d="M4.15177 9.494L4.34977 7.844C4.74577 8.12267 5.1491 8.30233 5.55977 8.383C5.97043 8.46367 6.3151 8.493 6.59377 8.471C6.82843 8.45633 7.02643 8.372 7.18777 8.218C7.35643 8.064 7.42977 7.88433 7.40777 7.679C7.3931 7.47367 7.3161 7.31233 7.17677 7.195C7.03743 7.07033 6.8431 6.964 6.59377 6.876C5.86777 6.612 5.29577 6.29667 4.87777 5.93C4.4671 5.56333 4.26177 5.07933 4.26177 4.478C4.26177 3.818 4.4671 3.26067 4.87777 2.806C5.29577 2.35133 5.8311 2.10933 6.48377 2.08C7.0631 2.05067 7.71577 2.16067 8.44177 2.41L8.24377 3.928C7.64977 3.686 7.11443 3.576 6.63777 3.598C6.37377 3.61267 6.1721 3.70433 6.03277 3.873C5.90077 4.04167 5.8421 4.24333 5.85677 4.478C5.87877 4.676 5.9631 4.83733 6.10977 4.962C6.26377 5.07933 6.47277 5.182 6.73677 5.27C8.25477 5.82733 9.01377 6.63033 9.01377 7.679C9.01377 8.34633 8.79743 8.90367 8.36477 9.351C7.93943 9.791 7.36377 10.0293 6.63777 10.066C5.83843 10.1247 5.00977 9.934 4.15177 9.494ZM9.63303 10L12.944 1.849H13.109L16.42 10H14.649L14.33 9.153H11.723L11.415 10H9.63303ZM12.295 7.679H13.747L13.032 5.633L12.295 7.679ZM17.5236 2.135H19.0966V8.427H21.5936V10H17.5236V2.135ZM27.0184 10H22.9484V2.135H26.8864V3.708H24.5214V5.281H26.5894V6.854H24.5214V8.427H27.0184V10Z" fill="white"/>
</svg>
