<svg width="966" height="596" viewBox="0 0 966 596" fill="none" xmlns="http://www.w3.org/2000/svg">
<path d="M406.144 543.445L392.682 595.931H454.251C462.078 596.334 469.896 594.958 477.122 591.905C484.348 588.852 490.798 584.201 495.992 578.296L524.063 542.71C510.288 542.71 496.618 542.71 482.948 542.71C457.59 541.765 431.815 542.29 406.144 543.445ZM684.767 479.411L809.157 0L386.943 464.085C346.194 467.972 305.706 474.246 265.684 482.876L483.678 243.012L451.85 365.936L524.898 286.996L599.824 0L123.763 523.185C81.5569 538.356 40.2366 555.915 0 575.777C157.732 534.004 320.154 512.835 483.261 512.793C530.011 512.793 576.414 514.542 622.468 518.041L603.059 595.407H655.235C663.068 595.856 670.9 594.501 678.134 591.445C685.367 588.389 691.812 583.712 696.977 577.771L733.605 529.589C811.943 540.097 889.558 555.488 966 575.672C876.859 531.315 782.303 498.951 684.767 479.411ZM633.947 470.594C588.208 464.037 542.087 460.53 495.888 460.096L693.011 243.012L633.947 470.594Z" fill="#3275A1"/>
</svg>
