<svg width="138" height="418" viewBox="0 0 138 418" fill="none" xmlns="http://www.w3.org/2000/svg">
<g opacity="0.6">
<circle cx="8.70833" cy="26.1243" r="8.70833" fill="white"/>
<circle cx="113.208" cy="26.1243" r="8.70833" fill="white"/>
<circle cx="60.9583" cy="8.70833" r="8.70833" fill="white"/>
<circle cx="8.70833" cy="60.9583" r="8.70833" fill="white"/>
<circle cx="113.208" cy="60.9583" r="8.70833" fill="white"/>
<circle cx="60.9583" cy="43.5423" r="8.70833" fill="white"/>
<circle cx="8.70833" cy="95.7923" r="8.70833" fill="white"/>
<circle cx="113.208" cy="95.7923" r="8.70833" fill="white"/>
<circle cx="60.9583" cy="78.3744" r="8.70833" fill="white"/>
<circle cx="8.70833" cy="130.624" r="8.70833" fill="white"/>
<circle cx="113.208" cy="130.624" r="8.70833" fill="white"/>
<circle cx="60.9583" cy="113.208" r="8.70833" fill="white"/>
<circle cx="8.70833" cy="165.458" r="8.70833" fill="white"/>
<circle cx="113.208" cy="165.458" r="8.70833" fill="white"/>
<circle cx="60.9583" cy="148.042" r="8.70833" fill="white"/>
<circle cx="8.70833" cy="200.292" r="8.70833" fill="white"/>
<circle cx="113.208" cy="200.292" r="8.70833" fill="white"/>
<circle cx="60.9583" cy="182.874" r="8.70833" fill="white"/>
<circle cx="8.70833" cy="235.124" r="8.70833" fill="white"/>
<circle cx="113.208" cy="235.124" r="8.70833" fill="white"/>
<circle cx="60.9583" cy="217.708" r="8.70833" fill="white"/>
<circle cx="8.70833" cy="269.958" r="8.70833" fill="white"/>
<circle cx="113.208" cy="269.958" r="8.70833" fill="white"/>
<circle cx="60.9583" cy="252.542" r="8.70833" fill="white"/>
<circle cx="8.70833" cy="304.792" r="8.70833" fill="white"/>
<circle cx="113.208" cy="304.792" r="8.70833" fill="white"/>
<circle cx="60.9583" cy="287.374" r="8.70833" fill="white"/>
<circle cx="8.70833" cy="339.624" r="8.70833" fill="white"/>
<circle cx="113.208" cy="339.624" r="8.70833" fill="white"/>
<circle cx="60.9583" cy="322.208" r="8.70833" fill="white"/>
<circle cx="8.70833" cy="374.458" r="8.70833" fill="white"/>
<circle cx="113.208" cy="374.458" r="8.70833" fill="white"/>
<circle cx="60.9583" cy="357.042" r="8.70833" fill="white"/>
<circle cx="8.70833" cy="409.292" r="8.70833" fill="white"/>
<circle cx="113.208" cy="409.292" r="8.70833" fill="white"/>
<circle cx="60.9583" cy="391.874" r="8.70833" fill="white"/>
</g>
</svg>
