<svg width="257" height="48" viewBox="0 0 257 48" fill="none" xmlns="http://www.w3.org/2000/svg">
<g clip-path="url(#clip0_1401_2269)">
<path d="M96.417 12.4123L80.6279 35.5873H85.9358L88.9305 31.0437H99.3276L100.009 35.5873H105.317L101.431 12.4123H96.417ZM91.6307 26.9231L97.4601 18.1235L98.7219 26.9231H91.6307ZM124.185 12.4123H115.605L109.607 35.5873H118.237C126.969 35.5873 133.808 30.1891 134.657 22.4472C135.314 16.4144 131.36 12.4123 124.185 12.4123ZM129.493 22.921C128.929 27.9977 124.757 31.4244 119.205 31.4244H115.621L119.449 16.5752H122.99C127.524 16.5752 129.913 19.0458 129.493 22.921ZM153.584 12.4123H142.237L136.273 35.5873H141.202L143.372 27.1262H147.578L152.348 35.5873H158.236L152.937 26.4408C156.579 25.2055 159.313 22.2864 159.666 18.6989C160.179 14.8914 157.815 12.4123 153.584 12.4123ZM154.627 19.2996C154.498 20.3595 153.97 21.3293 153.152 22.0093C152.334 22.6893 151.287 23.0277 150.228 22.9549H144.483L146.114 16.6005H151.818C153.702 16.6005 154.779 17.5905 154.627 19.2996ZM168.49 12.4123L162.602 35.5873H167.531L173.419 12.4123H168.49ZM187.98 12.4123L172.444 35.5873H177.752L180.704 31.0437H191.093L191.816 35.5873H197.124L193.011 12.4123H187.98ZM183.379 26.9231L189.116 18.1235L190.47 26.9231H183.379ZM202.037 12.4123L200.985 16.5752H208.615L203.862 35.5873H208.8L213.536 16.5752H221.149L222.192 12.4123H202.037ZM221.384 35.5873H226.28L231.991 12.4123H227.037L221.384 35.5873ZM248.571 16.3806C250.761 16.3896 252.9 17.0393 254.729 18.2505L257.067 14.0961C254.792 12.6334 252.137 11.8825 249.438 11.9385C241.169 11.9385 234.54 17.5567 233.724 25.8401C233.127 31.966 236.837 36.0611 243.566 36.0611C246.578 35.9863 249.534 35.2285 252.214 33.8443L251.894 29.6899C249.702 30.8706 247.271 31.5305 244.786 31.6191C240.454 31.6191 238.166 28.7338 239.024 24.4102C239.385 22.1509 240.54 20.0973 242.281 18.6235C244.021 17.1496 246.229 16.3536 248.504 16.3806H248.571Z" fill="#3275A1"/>
<path d="M32.7391 43.8033L31.6539 48.0338H36.617C37.2479 48.0663 37.8781 47.9554 38.4606 47.7093C39.0431 47.4632 39.563 47.0883 39.9817 46.6124L42.2445 43.7441C41.1341 43.7441 40.0322 43.7441 38.9302 43.7441C36.8861 43.6679 34.8084 43.7102 32.7391 43.8033ZM55.1988 38.642L65.2258 0L31.1913 37.4067C27.9066 37.7199 24.6428 38.2257 21.4167 38.9212L38.9891 19.5875L36.4235 29.4955L42.3118 23.1327L48.3515 0L9.9765 42.1703C6.57427 43.3931 3.24346 44.8084 0 46.4093C12.7147 43.0423 25.8075 41.336 38.9555 41.3326C42.724 41.3326 46.4645 41.4736 50.1769 41.7557L48.6123 47.9915H52.8182C53.4497 48.0278 54.081 47.9186 54.6641 47.6722C55.2472 47.4259 55.7667 47.0489 56.183 46.5701L59.1356 42.6864C65.4504 43.5335 71.7069 44.774 77.8689 46.4008C70.6832 42.8256 63.0611 40.2169 55.1988 38.642ZM51.1022 37.9313C47.4152 37.4027 43.6974 37.1201 39.9733 37.0851L55.8634 19.5875L51.1022 37.9313Z" fill="#3275A1"/>
</g>
<defs>
<clipPath id="clip0_1401_2269">
<rect width="257" height="48" fill="white"/>
</clipPath>
</defs>
</svg>
