<svg width="203" height="38" viewBox="0 0 203 38" fill="none" xmlns="http://www.w3.org/2000/svg">
<g clip-path="url(#clip0_1424_2272)">
<path d="M76.1591 9.82664L63.6875 28.1735H67.8801L70.2455 24.5765H78.458L78.9962 28.1735H83.1888L80.1191 9.82664H76.1591ZM72.3784 21.3144L76.983 14.3481L77.9796 21.3144H72.3784ZM98.0923 9.82664H91.315L86.5775 28.1735H93.3947C100.292 28.1735 105.693 23.9 106.365 17.7709C106.883 12.995 103.76 9.82664 98.0923 9.82664ZM102.285 18.146C101.84 22.1651 98.5441 24.8779 94.1588 24.8779H91.3282L94.3514 13.1222H97.1488C100.73 13.1222 102.617 15.0782 102.285 18.146ZM121.314 9.82664H112.351L107.64 28.1735H111.534L113.248 21.4751H116.57L120.338 28.1735H124.989L120.803 20.9326C123.68 19.9546 125.839 17.6437 126.118 14.8035C126.524 11.7893 124.657 9.82664 121.314 9.82664ZM122.138 15.2791C122.037 16.1182 121.619 16.886 120.973 17.4243C120.327 17.9626 119.5 18.2305 118.663 18.1728H114.125L115.414 13.1423H119.919C121.407 13.1423 122.258 13.9261 122.138 15.2791ZM133.088 9.82664L128.437 28.1735H132.331L136.982 9.82664H133.088ZM148.483 9.82664L136.211 28.1735H140.404L142.736 24.5765H150.942L151.513 28.1735H155.706L152.457 9.82664H148.483ZM144.849 21.3144L149.38 14.3481L150.45 21.3144H144.849ZM159.586 9.82664L158.756 13.1222H164.782L161.028 28.1735H164.928L168.669 13.1222H174.682L175.506 9.82664H159.586ZM174.868 28.1735H178.735L183.247 9.82664H179.333L174.868 28.1735ZM196.343 12.9682C198.073 12.9753 199.762 13.4897 201.207 14.4485L203.054 11.1596C201.257 10.0017 199.16 9.40722 197.027 9.45153C190.496 9.45153 185.26 13.8993 184.616 20.457C184.144 25.3066 187.074 28.5487 192.39 28.5487C194.769 28.4894 197.103 27.8895 199.22 26.7937L198.968 23.5048C197.236 24.4394 195.316 24.9619 193.353 25.032C189.931 25.032 188.124 22.7478 188.802 19.325C189.087 17.5364 190 15.9106 191.374 14.7438C192.749 13.577 194.493 12.9469 196.29 12.9682H196.343Z" fill="white"/>
<path d="M25.86 34.6776L25.0029 38.0268H28.9231C29.4215 38.0525 29.9193 37.9647 30.3794 37.7699C30.8395 37.5751 31.2502 37.2782 31.5809 36.9015L33.3682 34.6307C32.4912 34.6307 31.6207 34.6307 30.7503 34.6307C29.1357 34.5704 27.4946 34.6039 25.86 34.6776ZM43.6006 30.5916L51.5208 0L24.6375 29.6136C22.0429 29.8616 19.465 30.262 16.9167 30.8126L30.7968 15.5068L28.7703 23.3506L33.4214 18.3134L38.1921 0L7.88027 33.3848C5.1929 34.3529 2.56195 35.4733 0 36.7407C10.0431 34.0751 20.3849 32.7244 30.7703 32.7217C33.747 32.7217 36.7015 32.8333 39.6339 33.0566L38.398 37.9933H41.7202C42.219 38.022 42.7177 37.9355 43.1782 37.7405C43.6388 37.5455 44.0492 37.2471 44.378 36.868L46.7102 33.7934C51.6982 34.464 56.64 35.4461 61.5073 36.734C55.8315 33.9036 49.8109 31.8384 43.6006 30.5916ZM40.3648 30.0289C37.4525 29.6105 34.5159 29.3867 31.5742 29.3591L44.1255 15.5068L40.3648 30.0289Z" fill="white"/>
</g>
<defs>
<clipPath id="clip0_1424_2272">
<rect width="203" height="38" fill="white"/>
</clipPath>
</defs>
</svg>
