<svg xmlns="http://www.w3.org/2000/svg" viewBox="0 0 531.38 337.04"><defs><style>.cls-1{isolation:isolate;}.cls-2{fill:#c17536;}.cls-3{fill:#af5d20;}.cls-4{fill:#306f54;}.cls-5{fill:#3f8968;}.cls-6{fill:#266046;}.cls-20,.cls-7{fill:#59a780;}.cls-8{fill:#bab4a6;}.cls-9{fill:#a59d88;}.cls-10{fill:#dd890e;}.cls-11{fill:#25596e;}.cls-12,.cls-38{fill:#2f6c7f;}.cls-12,.cls-50,.cls-52{opacity:0.5;}.cls-12,.cls-20,.cls-22,.cls-30,.cls-43,.cls-47,.cls-50,.cls-52{mix-blend-mode:multiply;}.cls-13{fill:#eda024;}.cls-14{fill:#cc4729;}.cls-15{fill:#5d291b;}.cls-16{fill:#441a11;}.cls-17{fill:#c13b25;}.cls-18{fill:#dd613b;}.cls-19{fill:#403a3a;}.cls-21,.cls-22{fill:#ffb850;}.cls-23{fill:#af6800;}.cls-24{fill:#331d00;}.cls-25{fill:#706c6c;}.cls-26{fill:#544d4d;}.cls-27{fill:#c1af91;}.cls-28{fill:#e6d2af;}.cls-29{fill:#eaffca;}.cls-31,.cls-43{fill:#eaeaea;}.cls-32{fill:#ffb78f;}.cls-33{fill:#dd7957;}.cls-34{fill:#fefefe;}.cls-35{fill:#ff6652;}.cls-36{fill:#533e3d;}.cls-37{fill:#4c3434;}.cls-39{fill:#f08d63;}.cls-40{fill:#af2708;}.cls-41{fill:#9e1600;}.cls-42{fill:#380800;}.cls-44,.cls-47{fill:#bdcca2;}.cls-45{fill:#d5e0ba;}.cls-46{fill:#ebefda;}.cls-48{fill:#fc7c5e;}.cls-49{fill:#b7391c;}.cls-51,.cls-52{fill:#db452c;}.cls-53{fill:#701000;}.cls-54{fill:#3d3d3d;}.cls-55{fill:#6c6c6c;}.cls-56{fill:#e2493d;}</style></defs><title>foto hero_1</title><g class="cls-1"><g id="OBJECTS"><path class="cls-2" d="M719.79,392.39c6,3,10.38,6.29,13.33,9.69,3.75,4.37,5.18,8.91,4.49,13.28-2,12.57-21.4,23.71-53.13,24.28-51.5.92-277.27,15.75-386.63,2.77-4-.47-7.72-.93-11.29-1.39-94.8-12.16-52.21-19.91-52.21-19.91s-46.57-7.41-11.29-26.88,155.22-25.94,155.22-25.94,4.92-21.91,117.82-19.46c79.82,1.73,231.84,9.94,244.32,25.41a2.94,2.94,0,0,1,.5,3.32C732.7,394.64,720.52,392.52,719.79,392.39Z" transform="translate(-209.85 -110.68)"/><path class="cls-3" d="M737.61,415.36c-2,12.57-21.4,23.71-53.13,24.28-51.5.92-277.27,15.75-386.63,2.77-4-.47-7.72-.93-11.29-1.39,19.39-.87,37.4-3.39,48.79-6.25,22.34-5.6-10.19-38,4.6-33.65s2.62,16.39,28.26,19.42,39.1,2.15,56.18,5.17,44.69,9.93,75.57,6.91a257,257,0,0,1,31.44-.89c.49-2.06,48.42-7.9,80.93-9.47,35.49-1.72,66.38,1.73,52.9-.87s-27.27-2.15-15.11-3.88,12.81-3,38.77-2.15C705.48,415.92,725.7,416.82,737.61,415.36Z" transform="translate(-209.85 -110.68)"/><path class="cls-3" d="M740.92,377.56c-8.22,17.08-20.4,15-21.13,14.83,6,3,10.38,6.29,13.33,9.69-4-.81-8.78-1.66-14-3.12-15.44-4.32-51.59-9.07-39.1-9.92s27.6,0,19.06-1.73-28.92-4.32-19.72-5.62,20,.43,41.07-2.15c10.46-1.3,18.25-2.69,20-5.3A2.94,2.94,0,0,1,740.92,377.56Z" transform="translate(-209.85 -110.68)"/><path class="cls-3" d="M235.7,391.15c-.62,0-13.95,4.38-11.66,8.48s13.75,3,13.75,3-12.29,7.12,11.45,7.94,20.2-6,20.2-6,18.54,13.13,36.87,6.29S313,399.09,313,399.09s4.8,5.19,20,1.09,6.66-18.6-22.91-18.33S235.7,391.15,235.7,391.15Z" transform="translate(-209.85 -110.68)"/><path class="cls-3" d="M626.6,411.31s-3,.72-4,1.64,4,4.77,7.12,4,9.35-1.28,10.19-2.75-4.47-3.11-4.47-3.11Z" transform="translate(-209.85 -110.68)"/><path class="cls-3" d="M622,367.05c-.7.06-9.77,4.58-9.77,4.58s1.67,2.94,8.93,2.94,9.22-.37,10.75-.74,7.4-2.75,7.54-4.4a36.53,36.53,0,0,1,.56-3.66S624.07,366.87,622,367.05Z" transform="translate(-209.85 -110.68)"/><path class="cls-4" d="M322.49,382.48c-.47,14.94-15.62,8.72-15.62,8.72s-5.69,10-18.95,8.7-15.87-3.72-15.87-3.72-14.92,13.36-31.73.62c0,0-6.87,5.9-9.7-3.74s4.49-12.74,4.49-12.74-5.21-20.22,1.42-29.56a13.59,13.59,0,0,1,3.56-3.56c5.57-3.68,10.89.76,10.89.76s.24-13.36,5-16.78a6.55,6.55,0,0,1,1.23-.72c4.22-2,7.77,1.64,7.77,1.64s4-20.22,21.07-18.66,19.42,25.82,19.42,25.82a9,9,0,0,1,7.25.64,12.29,12.29,0,0,1,5.05,5.9,13.18,13.18,0,0,1,.9,2.6c2.06,8.6-5.39,16.06-5.39,16.06S323,367.56,322.49,382.48Z" transform="translate(-209.85 -110.68)"/><path class="cls-5" d="M302.54,342c.41,4.58-1.07,6.7-1.07,6.7C298.92,335.12,284,337.4,284,337.4c4.55-7.22,10-4.4,10-4.4s2-16.56-11.8-14.62-17.58,19.38-17.58,19.38c-2.19-4.56-5.13-6.5-7.52-7.3,4.22-2,7.77,1.64,7.77,1.64s4-20.22,21.07-18.66,19.42,25.82,19.42,25.82a9,9,0,0,1,7.25.64A26.29,26.29,0,0,0,302.54,342Z" transform="translate(-209.85 -110.68)"/><path class="cls-6" d="M322.49,382.48c-.47,14.94-15.62,8.72-15.62,8.72s-5.69,10-18.95,8.7-15.87-3.72-15.87-3.72-14.92,13.36-31.73.62c0,0-6.87,5.9-9.7-3.74s4.49-12.74,4.49-12.74-5.21-20.22,1.42-29.56a13.59,13.59,0,0,1,3.56-3.56c-1.92,6.52-3.55,16.54,1,24,7.38,12,16.32-4.1,16.32-4.1s3.5,13.54,13.8,14c8.16.42,12.67-7.52,14.19-10.82-1.3,3.66-3.67,13.42,6,17.72,12,5.36,15.53-14.8,12.62-24,0,0,15.16-2.54,14.58-15.3,0-.1,0-.22,0-.32,2.06,8.6-5.39,16.06-5.39,16.06S323,367.56,322.49,382.48Z" transform="translate(-209.85 -110.68)"/><path class="cls-7" d="M258.56,370.36c-7.42-1.22-6.63,10.26.94,9.95S262.34,371,258.56,370.36Z" transform="translate(-209.85 -110.68)"/><path class="cls-7" d="M256.9,353.56c-4.72,0-3.08,5.91,1,4.67S258.79,353.56,256.9,353.56Z" transform="translate(-209.85 -110.68)"/><path class="cls-7" d="M272.76,342.06c-4.69,1.48-5.68,9.95,1.66,11.5S279.63,339.88,272.76,342.06Z" transform="translate(-209.85 -110.68)"/><path class="cls-7" d="M277.26,364.14c-4.05,0-4,10.26.71,9.33S282.71,364.14,277.26,364.14Z" transform="translate(-209.85 -110.68)"/><path class="cls-7" d="M296,373.16c-6.77-2.89-11.37,9.95-3.79,12.75S304.73,376.89,296,373.16Z" transform="translate(-209.85 -110.68)"/><path class="cls-7" d="M292.89,335.84c-4.71-.73-3.31,7.77,1.9,7.15S296.92,336.46,292.89,335.84Z" transform="translate(-209.85 -110.68)"/><path class="cls-3" d="M520.5,354.93s-15.46,1.49-17.82,7.16,17.95,6.65,17.95,6.65-14,16.47,18.07,14.88,24-5.09,24-5.09,17.3,5.72,33.73-.18,6.15-7.72,6.15-7.72,25.88-4.56.79-10.2S536.41,349.68,520.5,354.93Z" transform="translate(-209.85 -110.68)"/><path class="cls-4" d="M607.57,361c-.85,14.32-15.24,7.66-15.24,7.66s-5.72,9.3-18.42,7.49-15.13-4.3-15.13-4.3S544.1,384,528.28,371c0,0-6.75,5.36-9.22-4s4.66-12,4.66-12-4.47-19.65,2.14-28.31c3-3.86,6-4.68,8.56-4.4a10.55,10.55,0,0,1,5.39,2.37s.58-12.82,5.22-15.89a6,6,0,0,1,3.53-1.09,7.39,7.39,0,0,1,4.36,1.74,7.58,7.58,0,0,1,.73.66,21.11,21.11,0,0,1,.7-2.31c1.78-5,7.25-16.43,20-14.66,9.44,1.31,14,9.71,16.12,16.54a45.7,45.7,0,0,1,1.84,9.14,8.85,8.85,0,0,1,6.08.46,9.57,9.57,0,0,1,1.45.85,12.92,12.92,0,0,1,4.13,5.52c2.15,5,.66,9.71-1.23,13a21.31,21.31,0,0,1-3.59,4.72S608.42,346.73,607.57,361Z" transform="translate(-209.85 -110.68)"/><path class="cls-5" d="M548.56,307.65a7.39,7.39,0,0,1,4.36,1.74,29.89,29.89,0,0,0-3.65,5.66Q548.79,311.18,548.56,307.65Z" transform="translate(-209.85 -110.68)"/><path class="cls-5" d="M590.5,309.62a41.66,41.66,0,0,0-14-7.82c-10.41-3.49-17.77,1.21-22.19,5.94,1.78-5,7.25-16.43,20-14.66C583.82,294.39,588.35,302.79,590.5,309.62Z" transform="translate(-209.85 -110.68)"/><path class="cls-5" d="M599.87,320.07c0,1.32-.09,2.07-.09,2.07a21.1,21.1,0,0,0-1.36-2.92A9.57,9.57,0,0,1,599.87,320.07Z" transform="translate(-209.85 -110.68)"/><path class="cls-6" d="M607.57,361c-.85,14.32-15.24,7.66-15.24,7.66s-5.72,9.3-18.42,7.49-15.13-4.3-15.13-4.3S544.1,384,528.28,371c0,0-6.75,5.36-9.22-4s4.66-12,4.66-12-4.47-19.65,2.14-28.31c3-3.86,6-4.68,8.56-4.4a47.46,47.46,0,0,0,1.05,16c4.28,17.77,23.39-1.32,23.39-1.32s-1,10.84,11.92,11.46,17.14-24.28,17.14-24.28,5.26,11.71,14.85,14.44a21.31,21.31,0,0,1-3.59,4.72S608.42,346.73,607.57,361Z" transform="translate(-209.85 -110.68)"/><path class="cls-7" d="M546.5,346.48c-7.1-1.51-6.64,9.55.64,9.6S550.12,347.25,546.5,346.48Z" transform="translate(-209.85 -110.68)"/><path class="cls-7" d="M545.35,330.28c-4.53-.22-3.11,5.53.79,4.52S547.17,330.37,545.35,330.28Z" transform="translate(-209.85 -110.68)"/><path class="cls-7" d="M560.89,320c-4.55,1.22-5.72,9.3,1.29,11.13S567.54,318.18,560.89,320Z" transform="translate(-209.85 -110.68)"/><path class="cls-7" d="M564.62,341.36c-3.89-.18-4.13,9.67.44,9S569.85,341.61,564.62,341.36Z" transform="translate(-209.85 -110.68)"/><path class="cls-7" d="M582.35,350.88c-6.43-3.08-11.18,9-4,12.07S590.66,354.86,582.35,350.88Z" transform="translate(-209.85 -110.68)"/><path class="cls-7" d="M580.38,314.9c-4.5-.91-3.39,7.32,1.63,7S584.23,315.68,580.38,314.9Z" transform="translate(-209.85 -110.68)"/><path class="cls-3" d="M288.2,413c-.54,0-8.8,2.85-6.63,3.2s7.17,3.56,13.8,2.31,11.9-2,11.9-3.73-10.68-1.78-11.9-1.95S288.2,413,288.2,413Z" transform="translate(-209.85 -110.68)"/><path class="cls-8" d="M300.79,416.29c-2.11-.11-4.67-.46-8.29-.46s-5.07.92-5.87-.11a10.08,10.08,0,0,1-1.14-3.8c-.16-1.23-.14-2.33.24-2.63.85-.7,6.17-1.85,8.13-2s3.26-1.84,5.62-2.18c1.85-.27,3.53,3.32,4.2,5.07a9.16,9.16,0,0,1,.32.9C304.4,413,302.89,416.41,300.79,416.29Z" transform="translate(-209.85 -110.68)"/><path class="cls-9" d="M300.79,416.29c-2.11-.11-4.67-.46-8.29-.46s-5.07.92-5.87-.11a10.08,10.08,0,0,1-1.14-3.8,5.71,5.71,0,0,0,3.75.7c3-.47,5.72-1.15,5.92-1.15a24.49,24.49,0,0,1-2.35,2.29s2.91,1.27,4.06.12.8-3.79,1.46-4,1.8,1.73,3,1.39a16.34,16.34,0,0,0,2.34-1,9.16,9.16,0,0,1,.32.9C304.4,413,302.89,416.41,300.79,416.29Z" transform="translate(-209.85 -110.68)"/><path class="cls-8" d="M639.74,410.29c-.1,1-.55,2.7-3.86,3.23s-4.77.72-5.77.46-2.52-2.57-2.72-2.77.79-1.39,1.08-1.74l.08-.1a6.83,6.83,0,0,1,4.1-2.24,11.38,11.38,0,0,1,4.78.79,3.54,3.54,0,0,1,1.93,1.21A1.64,1.64,0,0,1,639.74,410.29Z" transform="translate(-209.85 -110.68)"/><path class="cls-9" d="M639.74,410.29c-.1,1-.55,2.7-3.86,3.23s-4.77.72-5.77.46-2.52-2.57-2.72-2.77.79-1.39,1.08-1.74l1.18.75c.81.53,4.62-.13,4.62-.13l-.4,1.06a13.36,13.36,0,0,0,3.11-.46c.51-.33.86-1.19,1.06-1.26s.68-.17,1.32-.3A1.64,1.64,0,0,1,639.74,410.29Z" transform="translate(-209.85 -110.68)"/><path class="cls-3" d="M681.5,367.38c-.56,0-8.1.73-8.52,1.1s8.52,4.4,10.19,3.85,5.73,1.1,5.73,1.1-5.17,1.65-1.26,1.83,10.75.37,13.68.37,6.84,1.28,9.77.18,8.24-4.4,8.94-4.58l.16-.07A1.77,1.77,0,0,0,720,368c-3.77-1.45-10.35-3.87-12.5-3.87C704.39,364.08,681.5,367.38,681.5,367.38Z" transform="translate(-209.85 -110.68)"/><path class="cls-8" d="M711.74,353.82s-2.17,9.95-2.58,11.7-10.5,3.61-10.5,3.61l-17.4-3.83s-.82-6.12-.93-8.9a6.61,6.61,0,0,1,0-1.16,5.53,5.53,0,0,1,1.58-2.63,2.87,2.87,0,0,1,.28-3.43,1.15,1.15,0,0,1,.14-.17c1.66-1.87,7.41-5,11.82-7.11s6.24-2,7.58-1.32a55.53,55.53,0,0,1,5,4,16.28,16.28,0,0,0,2.51,1.84C710.65,347,711.74,353.82,711.74,353.82Z" transform="translate(-209.85 -110.68)"/><path class="cls-9" d="M692.86,346.44s-4.05,2.52-5.68,2.13c-1.13-.27-3.48.59-5,.61a2.87,2.87,0,0,0-.28,3.43s5-1.62,6.58-2.39S692.86,346.44,692.86,346.44Z" transform="translate(-209.85 -110.68)"/><path class="cls-9" d="M709.24,346.38a17,17,0,0,1-2.51-1.84c-1.2,2.09-3,5.57-3.18,7-.22,2.13-3.39,3.49-3.9,4s-1.63,3.3-1.92,3.59a60.65,60.65,0,0,0-5.53,3.39,23.35,23.35,0,0,0-3.25,3.39s-3.46-4.94-4.94-6.1c-1-.82-2.69-2.45-3.68-3.41.11,2.78.93,8.9.93,8.9l17.41,3.83s10.07-1.86,10.49-3.61,2.58-11.7,2.58-11.7S710.65,347,709.24,346.38Z" transform="translate(-209.85 -110.68)"/><path class="cls-8" d="M690.75,370c-2.11-.06-4.67-.26-8.28-.26s-5.07.52-5.88-.07a4.47,4.47,0,0,1-1.14-2.18c-.16-.7-.14-1.33.24-1.51a46.58,46.58,0,0,1,8.13-1.12c2-.07,3.26-1.05,5.62-1.25,1.85-.16,3.53,1.9,4.21,2.91.18.27.29.47.31.51C694.36,368,692.86,370,690.75,370Z" transform="translate(-209.85 -110.68)"/><path class="cls-9" d="M690.75,370c-2.11-.06-4.67-.26-8.28-.26s-5.07.52-5.88-.07a4.47,4.47,0,0,1-1.14-2.18,9.19,9.19,0,0,0,3.75.4c3-.26,5.72-.66,5.93-.66a24.92,24.92,0,0,1-2.36,1.32s2.91.73,4.06.07.81-2.18,1.46-2.31,1.81,1,3,.79c.62-.1,1.57-.36,2.35-.58.18.27.29.47.31.51C694.36,368,692.86,370,690.75,370Z" transform="translate(-209.85 -110.68)"/><path class="cls-8" d="M700.55,369.62c-.1,1-.55,2.71-3.86,3.23s-4.77.73-5.77.46-2.51-2.57-2.71-2.77.79-1.39,1.07-1.74l.08-.1a6.78,6.78,0,0,1,4.1-2.23,11.32,11.32,0,0,1,4.79.78,3.56,3.56,0,0,1,1.92,1.22A1.62,1.62,0,0,1,700.55,369.62Z" transform="translate(-209.85 -110.68)"/><path class="cls-9" d="M700.55,369.62c-.1,1-.55,2.71-3.86,3.23s-4.77.73-5.77.46-2.51-2.57-2.71-2.77.79-1.39,1.07-1.74c.46.29.91.57,1.19.76.8.52,4.62-.13,4.62-.13l-.41,1.05a12.84,12.84,0,0,0,3.11-.46c.51-.33.86-1.19,1.06-1.26s.68-.16,1.32-.29A1.62,1.62,0,0,1,700.55,369.62Z" transform="translate(-209.85 -110.68)"/><path class="cls-8" d="M715.92,363.41a12.14,12.14,0,0,1-1.48,5.9c-.74,1.17-5.68,3.49-9,3.59a10.7,10.7,0,0,1-5.9-1.75s-3.09-5.32-3.09-6.19a1.39,1.39,0,0,1,0-.27,6.67,6.67,0,0,1,3.36-3.9c2-.87,4.93-4.87,5.16-4.94,1.55-.48,6.93.68,8.78,2.62a10,10,0,0,1,1.83,2.14A5.53,5.53,0,0,1,715.92,363.41Z" transform="translate(-209.85 -110.68)"/><path class="cls-9" d="M708.32,362.82c-2.73-.09-5.09-.19-5.09-.19l2.8,2.71s-5.16,1.65-7,.87a12.93,12.93,0,0,1-2.55-1.52,1.39,1.39,0,0,0,0,.27c0,.87,3.09,6.19,3.09,6.19a10.7,10.7,0,0,0,5.9,1.75c3.32-.1,8.26-2.42,9-3.59a12.14,12.14,0,0,0,1.48-5.9,5.53,5.53,0,0,0-.31-2.8l-.21.18C715.18,361,711.05,362.92,708.32,362.82Z" transform="translate(-209.85 -110.68)"/><path class="cls-3" d="M310.66,406.58c-.43.07-4.47,2.84-4.47,2.84s7.71,2.49,11.23,1.6,9.07-3.91,9.07-5.15S319.72,405,310.66,406.58Z" transform="translate(-209.85 -110.68)"/><path class="cls-8" d="M323.66,400.49a12.15,12.15,0,0,1-1.48,5.91c-.74,1.16-5.68,3.49-9,3.58a10.68,10.68,0,0,1-5.9-1.74s-3.09-5.33-3.09-6.2a1.48,1.48,0,0,1,0-.27,6.7,6.7,0,0,1,3.36-3.9c2-.87,4.93-4.86,5.16-4.93,1.55-.49,6.93.67,8.78,2.61a10.55,10.55,0,0,1,1.83,2.14A5.56,5.56,0,0,1,323.66,400.49Z" transform="translate(-209.85 -110.68)"/><path class="cls-9" d="M316.06,399.91l-5.09-.19,2.8,2.71s-5.16,1.64-7,.87a12.77,12.77,0,0,1-2.55-1.53,1.39,1.39,0,0,0,0,.27c0,.87,3.09,6.2,3.09,6.2a10.64,10.64,0,0,0,5.9,1.74c3.32-.09,8.26-2.42,9-3.58a12.15,12.15,0,0,0,1.48-5.91,5.55,5.55,0,0,0-.31-2.8l-.21.19C322.92,398.07,318.79,400,316.06,399.91Z" transform="translate(-209.85 -110.68)"/><path class="cls-8" d="M640,361.12a12.16,12.16,0,0,1-1.47,5.9c-.74,1.17-5.68,3.49-9,3.59a10.7,10.7,0,0,1-5.9-1.75s-3.1-5.32-3.1-6.19a1.47,1.47,0,0,1,0-.27,6.69,6.69,0,0,1,3.35-3.9c2-.87,4.94-4.87,5.17-4.94,1.55-.48,6.93.68,8.77,2.62a10,10,0,0,1,1.83,2.14A5.42,5.42,0,0,1,640,361.12Z" transform="translate(-209.85 -110.68)"/><path class="cls-9" d="M632.36,360.53c-2.73-.09-5.09-.19-5.09-.19l2.8,2.71s-5.16,1.65-7,.87a13.14,13.14,0,0,1-2.54-1.52,1.51,1.51,0,0,0,0,.26c0,.88,3.1,6.2,3.1,6.2a10.7,10.7,0,0,0,5.9,1.75c3.32-.1,8.26-2.42,9-3.59a12.27,12.27,0,0,0,1.47-5.9,5.53,5.53,0,0,0-.31-2.8l-.2.18C639.21,358.69,635.08,360.63,632.36,360.53Z" transform="translate(-209.85 -110.68)"/><path class="cls-3" d="M587.07,395.83c-2.06,0-28.16,5.3-16,7.07s35,.89,54-.88,55.57-.3,56.6-5.31-8.07-6.48-23.9-4.56a453.85,453.85,0,0,1-47.07,3.09C599.09,395.24,587.07,395.83,587.07,395.83Z" transform="translate(-209.85 -110.68)"/><path class="cls-10" d="M597.23,334.05s5.49-2.62,15.79-1.79,12.24,4.15,12.24,4.15S604.92,344.12,597.23,334.05Z" transform="translate(-209.85 -110.68)"/><path class="cls-11" d="M638.72,269.33s-13.57,51.45-15.47,58.86-3.1,12.94-3.1,12.94-20,7.17-19.76-4.56c0-1.79.25-4.7.62-8.32,1.78-17.64,6.74-52.55,8.08-61.39.19-1.27.31-2,.34-2.08Z" transform="translate(-209.85 -110.68)"/><path class="cls-12" d="M638.72,269.33s-13.57,51.45-15.47,58.86-3.1,12.94-3.1,12.94-20,7.17-19.76-4.56c0-1.79.25-4.7.62-8.32a22.44,22.44,0,0,0,9.65,1.6c6.79-.53,1.91,2.8.86,3.86s4.36,1.91,8.9-13.32,2.08-12.26-5.41-9.82,3.84-5.95,9.24-16.11-9.41-6.65-14.82-26.27l-.34-1.33c.19-1.27.31-2,.34-2.08Z" transform="translate(-209.85 -110.68)"/><path class="cls-13" d="M616.58,384.12c0,1.44,1.91,8.69.47,16.59H577.19a9.79,9.79,0,0,1,.12-3.29,3.82,3.82,0,0,1,1.8-2.68c2.09-1.11,13.87-7.66,18.4-10.18l1.78-1-.09-2.31-2-47.2a98.44,98.44,0,0,0,18.21,2.73,55.28,55.28,0,0,0,9.81-.37S616.58,382.68,616.58,384.12Z" transform="translate(-209.85 -110.68)"/><path class="cls-10" d="M616.58,384.12c0,1.44,1.91,8.69.47,16.59H577.19a9.79,9.79,0,0,1,.12-3.29c5.92-1.55,24.87-4.31,24.43-7.57-.31-2.33-2.59-4.06-4.23-5.29l1.78-1-.09-2.31c3.85-1.76,10-5.61,13.39-15.41,3.71-10.8,3.22-23.07,2.86-29.06a55.28,55.28,0,0,0,9.81-.37S616.58,382.68,616.58,384.12Z" transform="translate(-209.85 -110.68)"/><path class="cls-10" d="M651.17,337.78l-7.41-3.73s4.39-2.89,14.28-3.72,15.1,2.34,15.1,2.34S663.8,343,651.17,337.78Z" transform="translate(-209.85 -110.68)"/><path class="cls-11" d="M669,336.1c-5.71,2.87-19.05,3.59-21,.72a78.22,78.22,0,0,1-3.08-8.26c-4.41-12.92-12.28-37.67-16.56-51.21l-3-9.46c4.76-7.17,33.82-7.42,34.53-3.36s.72,20.35,1.19,23.94c.2,1.45,1.53,9.59,3,18.73.4,2.35.79,4.77,1.19,7.15C667.2,325.54,669,336.1,669,336.1Z" transform="translate(-209.85 -110.68)"/><path class="cls-12" d="M646.57,276.6a43.37,43.37,0,0,1-18.2.75l-3-9.46c4.76-7.17,33.82-7.42,34.53-3.36s.72,20.35,1.19,23.94c.2,1.45,1.53,9.59,3,18.73a3.6,3.6,0,0,0-3.65-.47c-8.88,2.8-15.15,1.75-6.09-10.34S662.77,272.74,646.57,276.6Z" transform="translate(-209.85 -110.68)"/><path class="cls-14" d="M669,336.1c-5.71,2.87-19.05,3.59-21,.72a78.22,78.22,0,0,1-3.08-8.26,11.45,11.45,0,0,0,9.48.23c6.12-2.53,9.91-9.09,10.93-14.44C667.2,325.54,669,336.1,669,336.1Z" transform="translate(-209.85 -110.68)"/><path class="cls-13" d="M677,396.25H637a8.91,8.91,0,0,1,0-2.85,4.42,4.42,0,0,1,1.12-2.38c1.37-1.37,13.68-6.14,19.37-8.3l2.87-1.09-16.59-47.57c.58.23,15.49,6.18,29.35-1.38l1.24,48.41A48.73,48.73,0,0,1,677,396.25Z" transform="translate(-209.85 -110.68)"/><path class="cls-10" d="M677,396.25H637a8.91,8.91,0,0,1,0-2.85c2.55-.76,5.59-1.59,9-2.53,12.37-3.41,11.87-5.45,11.53-8a.49.49,0,0,0,0-.15l2.87-1.09-16.59-47.57c.58.23,15.49,6.18,29.35-1.38l1.24,48.41A48.73,48.73,0,0,1,677,396.25Z" transform="translate(-209.85 -110.68)"/><path class="cls-15" d="M661.5,195.28c-10.23.82-13.57-4.51-13.57-4.51a27.37,27.37,0,0,1-12.53,2.54c-6.91-.34-13.7-6.47-13.7-6.47s-7.47,2.9-18.52-.35-.1-15.83-.1-15.83-2.19-3.12-.23-5.89a6.39,6.39,0,0,1,1.39-1.41,21.46,21.46,0,0,1,6.19-3s-1.61-6.24,2.19-8.9A59.54,59.54,0,0,0,620.1,145c12.88-30.28,31.63-12.48,31.63-12.48,3.68,6.23.11,13.75,3.57,18.15,8.52,10.85.8,10.74,8.62,14s5.41,8.32,5.41,8.32C680,181.52,671.74,194.46,661.5,195.28Z" transform="translate(-209.85 -110.68)"/><path class="cls-16" d="M649,136a17,17,0,0,1,.53,11c-1.79,5.92.38,5.28,1.66,8s-2.34,8.38-2.34,8.38,1.7-3.75-.73-5.94-2.69-3.86-2.69-6.95-1.92,2.58-.51,6.44.9,4.08-.51,6.93a5.71,5.71,0,0,0,.38,5.45s-2.68.1-2.56-3.37.56-5.95-.23-7.24-2.31,5.16-1,8.65c1.61,4.36-1.69,9.28-1.69,9.28s-13.77-.45-14.24-2.68.72-6.47-.78-8.14S623,152.55,623,152.55s-2.59,4.24-3,7.84a5,5,0,0,1-3.51,4.37,8.19,8.19,0,0,0,2.36-7.13c-.78-4.32-.57-8.06,4.43-12.3S645.25,125.6,649,136Z" transform="translate(-209.85 -110.68)"/><path class="cls-16" d="M661.5,195.28c-10.23.82-13.57-4.51-13.57-4.51a27.37,27.37,0,0,1-12.53,2.54c-6.91-.34-13.7-6.47-13.7-6.47s-7.47,2.9-18.52-.35-.1-15.83-.1-15.83-2.19-3.12-.23-5.89a6.39,6.39,0,0,1,1.39-1.41s-1.45,2.84,2.07,7,11-4.34,11.35-4.78a6.86,6.86,0,0,0,.81,7.55c3,3.92,16-2.77,16-2.77s6,5.09,12.57,2.88,6.37-5.42,6.37-5.42,2.33,1.51,4.89,6.54,11.29,6.79,11-1.38C680,181.52,671.74,194.46,661.5,195.28Z" transform="translate(-209.85 -110.68)"/><path class="cls-14" d="M614.82,179.47l-2.44-1.14s-6.83.81-9.92,11.6-15.52,39.88-11.78,48.38,12.38,5.46,17.26-13.66S614.82,179.47,614.82,179.47Z" transform="translate(-209.85 -110.68)"/><path class="cls-17" d="M605.17,208.6s.8-11.06,4.47-13.36-1.15,10.36-1.15,11.4,2.3,1.5,2,6.91-5.5,21.19-6.65,23.73-.91,1.49-1.71-5.07S605.17,208.6,605.17,208.6Z" transform="translate(-209.85 -110.68)"/><path class="cls-18" d="M664.28,203.17c-.82,13.08-2.29,62.94-2.29,62.94a27.26,27.26,0,0,1-7.41,3.52c-4.76,1.62-12,3.18-22,3.18-20.83,0-25-6.54-25-6.54l6.66-42.5s-5.2-9.16-5.85-14.55,4.06-30.89,4.06-30.89l17.25-8c7.35-3.75,22.11,3.74,29.25,7.85,2.5,1.46,4.07,2.49,4.07,2.49A87.73,87.73,0,0,1,664.28,203.17Z" transform="translate(-209.85 -110.68)"/><path class="cls-14" d="M664.28,203.17c-.82,13.08-2.29,62.94-2.29,62.94a27.26,27.26,0,0,1-7.41,3.52c.48-5.07.45-9.29-.73-9.78-2.31-1-10.76,1.53-8.65-1.55s1.15-12.74-4.61-13.12-11.72-4.45-17.86-3.1a104.8,104.8,0,0,0-11.91,3.48l3.35-21.79s6.06-2.15,12.21-3.68,12.48,5.59,20.55.77,10.37-34,10.37-34c.25-1.16,3.1-3.57,3.44-4.57,2.5,1.45,2.21-1.61,2.21-1.61A87.73,87.73,0,0,1,664.28,203.17Z" transform="translate(-209.85 -110.68)"/><path class="cls-19" d="M643.65,311.45c2.71-7.39,50.56-9.64,49.93,1.3s-30.16,9.19-36.63,7.78S643.65,311.45,643.65,311.45Z" transform="translate(-209.85 -110.68)"/><path class="cls-4" d="M684.65,296.24c-.37,4.28-2.65,10.82-.73,18.32,0,.14.08.28.11.43l-.33-.39c-1.92-2.31-11.7-14.07-13.65-18.15a8.92,8.92,0,0,1-.87-4.49c.11-2.28.82-4.31-.07-6.87a20.08,20.08,0,0,1,2.29-18.51c4.79-7.05,6.76-4.54,8.65,2.93.07.27.14.54.21.83,2,8.09-.42,11.91-.15,15.24S685,291.88,684.65,296.24Z" transform="translate(-209.85 -110.68)"/><path class="cls-7" d="M674.12,269.73s-3,23.46,8.56,42c0,0-10-19.33-7.4-40.81,0,0,.29-2.3.49-3.06S674.56,266.71,674.12,269.73Z" transform="translate(-209.85 -110.68)"/><path class="cls-20" d="M684.65,296.24c-.37,4.28-2.65,10.82-.73,18.32l-.22,0c-1.92-2.31-11.7-14.07-13.65-18.15a8.92,8.92,0,0,1-.87-4.49c.8.54,2.31,1.63,3.1,1.52,1.09-.15.3-3.37,2.93-6.66s-.26-5.54,2-10.77c1.15-2.66,2-4.86,2.85-6.54.07.27.14.54.21.83,2,8.09-.42,11.91-.15,15.24S685,291.88,684.65,296.24Z" transform="translate(-209.85 -110.68)"/><path class="cls-4" d="M694.69,270.54c-.63,9.26-4.44,12.5-5.28,16.14a4.42,4.42,0,0,0-.1,1.26c.07,3.42,3,7.59,1.36,11.59-1.87,4.51-6.61,10.83-6.93,19.71,0,0-5.52-13.24-7.77-20.8a27.14,27.14,0,0,1-.87-3.63c-.78-5.54,2.94-7.56,2.79-12.37a22.42,22.42,0,0,1,8.64-18.88C694.26,257.48,695.32,261.26,694.69,270.54Z" transform="translate(-209.85 -110.68)"/><path class="cls-20" d="M690.67,299.53c-1.87,4.51-6.61,10.83-6.93,19.71,0,0-5.52-13.24-7.77-20.8,1.55.22,3.64.55,5.21.75,2.56.31,1-3.73,5.07-7.73a26,26,0,0,0,3.06-3.52C689.38,291.36,692.33,295.53,690.67,299.53Z" transform="translate(-209.85 -110.68)"/><path class="cls-7" d="M688.36,267.82s-11.1,23.88-5,47.55c0,0-4.18-23.92,5.81-45.84,0,0,1.08-2.35,1.55-3.1S689.84,264.75,688.36,267.82Z" transform="translate(-209.85 -110.68)"/><path class="cls-4" d="M710.83,282.63a27.5,27.5,0,0,1-6.37,9,29.57,29.57,0,0,0-4.28,4.22c-2.06,3.1,0,8.93-3.35,12.47s-10,7.76-13.43,16c0,0-.56-16.31.21-23.68a17.9,17.9,0,0,1,.33-2.24c1.23-5.46,5.42-6,7-10.58a22.31,22.31,0,0,1,14.75-14.57C715,270.27,714.67,274.19,710.83,282.63Z" transform="translate(-209.85 -110.68)"/><path class="cls-20" d="M704.46,291.63a29.57,29.57,0,0,0-4.28,4.22c-2.06,3.1,0,8.93-3.35,12.47s-10,7.76-13.43,16c0,0-.56-16.31.21-23.68.58.62,1.41,1.45,2.47,2.4,2.24,2,4.51-4.4,10.15-7.94A31.38,31.38,0,0,1,704.46,291.63Z" transform="translate(-209.85 -110.68)"/><path class="cls-7" d="M705.87,277.84s-18.81,18.38-21.46,42.69c0,0,4.54-23.85,21.61-40.8,0,0,1.84-1.8,2.54-2.33S708.33,275.51,705.87,277.84Z" transform="translate(-209.85 -110.68)"/><path class="cls-4" d="M727.9,303.22c-.86.44-1.68.81-2.47,1.13-6.76,2.76-10.88,1.55-14,2.56-3.54,1.13-5.55,7-10.36,7.66s-12.65-.19-20.4,4.09c0,0,5.45-7.4,10.37-13.31a54.76,54.76,0,0,1,6.12-6.65c4.34-3.48,8-1.31,12-3.9a22.13,22.13,0,0,1,20.57-2.19C738.84,296.18,736.14,299,727.9,303.22Z" transform="translate(-209.85 -110.68)"/><path class="cls-20" d="M725.43,304.35c-6.76,2.76-10.88,1.55-14,2.56-3.54,1.13-5.55,7-10.36,7.66s-12.65-.19-20.4,4.09c0,0,5.45-7.4,10.37-13.31a7.68,7.68,0,0,0-1.2,3.77c.2,2.36,8.81.77,14.82-2.19s8.62-1.41,16.34-1.87A24.06,24.06,0,0,0,725.43,304.35Z" transform="translate(-209.85 -110.68)"/><path class="cls-7" d="M727,296.37s-26.11,2.62-43.24,20c0,0,18.33-15.83,42.19-18.41,0,0,2.55-.26,3.43-.24S730.36,296.09,727,296.37Z" transform="translate(-209.85 -110.68)"/><path class="cls-13" d="M677.37,305.4a11.08,11.08,0,0,1-21.33-6,7.16,7.16,0,0,1,.22-.7c1.87-5.32,7.18-6.4,12.84-4.81,4.85,1.37,8.44,4.27,8.62,8.57A8.9,8.9,0,0,1,677.37,305.4Z" transform="translate(-209.85 -110.68)"/><path class="cls-21" d="M671.6,296c-1.38.17.62,3.23-3.51,3s1.7,4.45,6.84,3S673.35,295.74,671.6,296Z" transform="translate(-209.85 -110.68)"/><path class="cls-22" d="M677.37,305.4a10.85,10.85,0,0,1-13.57,7.48,11,11,0,0,1-8.14-11.2,10.49,10.49,0,0,1,.38-2.25,7.16,7.16,0,0,1,.22-.7c.91,1.07,2.85,2.76,6.78,4.14,6.15,2.13,8.53-.76,14.68-.38,0,.15,0,.3,0,.45A8.08,8.08,0,0,1,677.37,305.4Z" transform="translate(-209.85 -110.68)"/><path class="cls-22" d="M677.37,305.4a10.85,10.85,0,0,1-13.57,7.48,11,11,0,0,1-8.14-11.2,2.42,2.42,0,0,0,1.71.9c2.8.37,4.59.07,7,1.87s2.47,2.14,5.48.47c2.64-1.46,5.2-2.72,7.85-2A8.08,8.08,0,0,1,677.37,305.4Z" transform="translate(-209.85 -110.68)"/><path class="cls-23" d="M668.19,297.06a18.09,18.09,0,0,0-1.92-1.33c-.87-.5,2.29-.82,3.92.37S670.07,296.35,668.19,297.06Z" transform="translate(-209.85 -110.68)"/><path class="cls-24" d="M668.87,296.46c0,.12-.27.15-.53.08s-.45-.23-.41-.35.27-.16.53-.08S668.9,296.34,668.87,296.46Z" transform="translate(-209.85 -110.68)"/><path class="cls-13" d="M667.47,317.27a11.08,11.08,0,0,1-21.33-6,9.09,9.09,0,0,1,1-2.26c2.28-4,7.06-4.66,12.09-3.24,4.31,1.22,7.63,3.63,8.45,7.17A8.66,8.66,0,0,1,667.47,317.27Z" transform="translate(-209.85 -110.68)"/><path class="cls-21" d="M660.54,307c-1.37.16.63,3.23-3.5,3s1.69,4.44,6.84,3S662.3,306.73,660.54,307Z" transform="translate(-209.85 -110.68)"/><path class="cls-22" d="M667.47,317.27a11.08,11.08,0,0,1-21.33-6,9.09,9.09,0,0,1,1-2.26c1,.8,3.18,1.88,7.88,3.19,7.15,2,11.14,1.25,12.66.74A8.66,8.66,0,0,1,667.47,317.27Z" transform="translate(-209.85 -110.68)"/><path class="cls-23" d="M658.29,308.92a18.68,18.68,0,0,0-1.92-1.34c-.88-.5,2.28-.82,3.92.37S660.17,308.2,658.29,308.92Z" transform="translate(-209.85 -110.68)"/><path class="cls-24" d="M659,308.31c0,.12-.28.16-.54.09s-.44-.23-.41-.35.27-.16.53-.09S659,308.19,659,308.31Z" transform="translate(-209.85 -110.68)"/><path class="cls-13" d="M677,325.09a10.86,10.86,0,0,1-10-11.83,9,9,0,0,1,.72-2.9c1.73-3.91,6.14-5.33,11.14-4.86,6.08.58,10.76,3.71,10.18,9.82a1.17,1.17,0,0,1,0,.26A10.81,10.81,0,0,1,677,325.09Z" transform="translate(-209.85 -110.68)"/><path class="cls-21" d="M682.84,306.85c-1.37.17.63,3.24-3.51,3s1.7,4.44,6.85,3S684.6,306.64,682.84,306.85Z" transform="translate(-209.85 -110.68)"/><path class="cls-22" d="M677,325.09a10.86,10.86,0,0,1-10-11.83,9,9,0,0,1,.72-2.9c1,1.29,3.33,3.33,9.29,5.25,6.93,2.24,10.52.91,12,0A10.81,10.81,0,0,1,677,325.09Z" transform="translate(-209.85 -110.68)"/><path class="cls-23" d="M678.46,308.75a18.86,18.86,0,0,0-2.12-1c-1-.33,2.1-1.22,3.92-.34S680.18,307.71,678.46,308.75Z" transform="translate(-209.85 -110.68)"/><path class="cls-24" d="M679,308c0,.13-.24.21-.51.18s-.48-.15-.46-.27.24-.2.51-.18S679,307.91,679,308Z" transform="translate(-209.85 -110.68)"/><path class="cls-25" d="M690.29,318s2.36-15.14-6.37-24.08c-4-4.06-10.24-6.83-20.06-6.32a17.59,17.59,0,0,0-8.78,2.28c-5.36,3.06-10.84,10.23-8.61,26.93l-1.91-.25s-4.33-21.79,8.78-28.88a20,20,0,0,1,9.8-2.22c8.06,0,14,1,18.33,3.19h0c9,4.47,11.2,13.76,11.2,28.62Z" transform="translate(-209.85 -110.68)"/><path class="cls-26" d="M644.2,303.27a46.45,46.45,0,0,0,.27,12.75l1.23.69.77.1a49.48,49.48,0,0,1-.42-9.61A23.23,23.23,0,0,1,644.2,303.27Z" transform="translate(-209.85 -110.68)"/><path class="cls-26" d="M683.92,293.92c-4-4.06-10.24-6.83-20.06-6.32a17.59,17.59,0,0,0-8.78,2.28,4.61,4.61,0,0,0-1.74-2.2,20,20,0,0,1,9.8-2.22c8.06,0,14,1,18.33,3.19h0C683.21,290.85,684,292.87,683.92,293.92Z" transform="translate(-209.85 -110.68)"/><path class="cls-25" d="M693.58,312.75l-.17,3.05L691,358s-.94,1.92-19.29,3.12-25.24-4.31-26-4.31c-.14,0-.32-1.88-.5-4.88-.73-11.71-1.6-40.44-1.6-40.44s8,8,25.05,8.16S693.58,312.75,693.58,312.75Z" transform="translate(-209.85 -110.68)"/><path class="cls-26" d="M693.41,315.8,691,358s-.94,1.92-19.29,3.12-25.24-4.31-26-4.31c-.14,0-.32-1.88-.5-4.88,26.64,5.6,40.4-6,26.57-5.13-14.64.93-26-6.78-10.24-6.78s26.27-7.94,12.09-5.6-38.34-5.84-8.12-4.21C682.17,331.07,689.87,323.12,693.41,315.8Z" transform="translate(-209.85 -110.68)"/><path class="cls-27" d="M659.14,256.13s1.14-3.48,9.67-4.72,7.32,2.6,7.32,2.6S671,265.12,659.14,256.13Z" transform="translate(-209.85 -110.68)"/><path class="cls-18" d="M675.53,247.2c-.19,8.78-.69,15.15-.69,15.15l-13.28,1.46s-.17-3.12-.43-7.49c-.41-6.86-1-16.79-1.56-22.58-.85-9.48-3.43-22.39-2.57-34.66s.71-17.81,5.28-18.63c5-.89,10.85,22.89,12.56,41.52A225.92,225.92,0,0,1,675.53,247.2Z" transform="translate(-209.85 -110.68)"/><path class="cls-14" d="M675.53,247.2c-.19,8.78-.69,15.15-.69,15.15l-13.28,1.46s-.17-3.12-.43-7.49A16.5,16.5,0,0,0,675.53,247.2Z" transform="translate(-209.85 -110.68)"/><path class="cls-28" d="M676.45,286.64a7.65,7.65,0,0,1-.17,1.37c-.87,3.6-3.33,3.45-3.33,3.45s-1.06,2.35-2.84,3a2.15,2.15,0,0,1-2.58-.67s-1.08,2.51-2.84,2.37A4.06,4.06,0,0,1,662,295s-1.35,3-3.41,1.61l-.15-.11a2.1,2.1,0,0,1-.52-1.07,22.33,22.33,0,0,1-.51-3.78c-.27-4.11-.07-9.61.46-11.67a11,11,0,0,1,3.86-5.39l-2.57-18.46a23.4,23.4,0,0,0,9.71,1.47,11,11,0,0,0,7.28-3.6l-1,19.94S676.73,282.29,676.45,286.64Z" transform="translate(-209.85 -110.68)"/><path class="cls-27" d="M676.45,286.64a7.65,7.65,0,0,1-.17,1.37c-.87,3.6-3.33,3.45-3.33,3.45s-1.06,2.35-2.84,3a2.15,2.15,0,0,1-2.58-.67s-1.08,2.51-2.84,2.37A4.06,4.06,0,0,1,662,295s-1.35,3-3.41,1.61a1.64,1.64,0,0,1-.67-1.18,22.33,22.33,0,0,1-.51-3.78,3.57,3.57,0,0,0,2.4,1,2.5,2.5,0,0,0,2.51-2.08s1.35,1.71,3.1,1a3.79,3.79,0,0,0,2.13-2.43,2.35,2.35,0,0,0,2.84.88,2.61,2.61,0,0,0,1.67-2.15S675,288.73,676.45,286.64Z" transform="translate(-209.85 -110.68)"/><path class="cls-18" d="M623.07,234.53s-16.93,10.65-27.62,8.36a6,6,0,0,1-3.63-2c-3.76-4.77,4.58-15.3,10.46-15l2.57.15,18.25,1.09C629.73,235.35,623.07,234.53,623.07,234.53Z" transform="translate(-209.85 -110.68)"/><path class="cls-14" d="M623.07,234.53s-16.93,10.65-27.62,8.36a6,6,0,0,1-3.63-2c1.41-.09,2.49-.76,2.46-2.14-.07-2.69.78-5.1,1.41-2.83s2.61,6.09,3.18-.5c.4-4.79,4-8,6-9.35l18.25,1.09C629.73,235.35,623.07,234.53,623.07,234.53Z" transform="translate(-209.85 -110.68)"/><path class="cls-29" d="M625.16,220.49c-.13,1.52-.23,3.28-.25,5.35-.16,12.23,2.13,21.43,2.45,21.43s6.22-14.56,7.62-24.5C628.57,223.45,625.93,221.31,625.16,220.49Z" transform="translate(-209.85 -110.68)"/><g class="cls-30"><path class="cls-31" d="M632.08,222.89c-1.77,6.86-3,14-5,10.69-.78-1.34-1.51-2.45-2.16-3.37.33,10,2.13,17.06,2.41,17.06s6.22-14.56,7.62-24.5A21.3,21.3,0,0,1,632.08,222.89Z" transform="translate(-209.85 -110.68)"/></g><path class="cls-28" d="M635.23,226.4a12.88,12.88,0,0,1,.35,3.35,1.42,1.42,0,0,1-.09.27,15.08,15.08,0,0,1-1.25,2.12,11.21,11.21,0,0,1,0,2.53.79.79,0,0,1-.11.33,7.74,7.74,0,0,1-1.74,1.25s.13,1.62-1,2.11a12.1,12.1,0,0,1-3.6.46,25.55,25.55,0,0,1-4-.19,22.28,22.28,0,0,1-5.57-1.39l-12.5,6.93a10.73,10.73,0,0,1-5.24-6.45,14.51,14.51,0,0,1-.71-3.95c-.4-8,7-8.14,7-8.14l8.61-.47,5-1.25a32.16,32.16,0,0,1,3.29-5c1.48-1.61,6.26-.35,6.88-.1s.87,3,.87,3a9.91,9.91,0,0,1,4,1.36,1.47,1.47,0,0,1,.68,1.15A3.55,3.55,0,0,1,635.23,226.4Z" transform="translate(-209.85 -110.68)"/><path class="cls-4" d="M632.68,210.07c-.48-4.89,2.27-21-2.23-13s-.51,20.53-.51,20.53A8.74,8.74,0,0,0,632.68,210.07Z" transform="translate(-209.85 -110.68)"/><path class="cls-7" d="M631.25,199.38c-2.09,5.57-1.06,16.84-1.06,16.49C630.31,208.19,631.25,199.38,631.25,199.38Z" transform="translate(-209.85 -110.68)"/><path class="cls-4" d="M634.31,212.18c.46-4,5.42-15.87.5-10.94s-3.95,16-3.95,16A6,6,0,0,0,634.31,212.18Z" transform="translate(-209.85 -110.68)"/><path class="cls-7" d="M631.35,216c1.42-6,3.68-12.66,3.68-12.66C632.42,207.09,631.29,216.27,631.35,216Z" transform="translate(-209.85 -110.68)"/><path class="cls-29" d="M635,223.44a28.59,28.59,0,0,0,.3-3.61,6.15,6.15,0,0,0-.89-3.26l0,0c-1.76-2.65-5.19-4-8.12.4a6.07,6.07,0,0,0-.9,2.57c-.06.51-.12,1.07-.18,1.65C626,222,628.62,224.12,635,223.44Z" transform="translate(-209.85 -110.68)"/><path class="cls-31" d="M635,223.44a28.59,28.59,0,0,0,.3-3.6,6,6,0,0,0-.91-3.29h0a46.37,46.37,0,0,0-2.28,7A23,23,0,0,0,635,223.44Z" transform="translate(-209.85 -110.68)"/><path class="cls-27" d="M621.09,236.91c.94.58,1.89,1.2,2.73,1.72a22.28,22.28,0,0,1-5.57-1.39l-12.5,6.93a10.73,10.73,0,0,1-5.24-6.45c5.8,1.34,10.62.6,12-1.59,1.63-2.48.28-3.44,1.46-3.5s1.86,2.7,2.47,1.7,0-2.32.67-1.7S618.85,235.51,621.09,236.91Z" transform="translate(-209.85 -110.68)"/><path class="cls-27" d="M633.88,234.84a1.66,1.66,0,0,0,.36-.17.79.79,0,0,1-.11.33,7.74,7.74,0,0,1-1.74,1.25s.13,1.62-1,2.11a12.1,12.1,0,0,1-3.6.46,3.88,3.88,0,0,0,1.65-2c.28-1.47-.16-1.63-.16-1.63A27.81,27.81,0,0,0,633.88,234.84Z" transform="translate(-209.85 -110.68)"/><path class="cls-27" d="M635.06,230l.52-.29a1.42,1.42,0,0,1-.09.27,15.08,15.08,0,0,1-1.25,2.12,9.36,9.36,0,0,1-4.28-.58A19.23,19.23,0,0,0,635.06,230Z" transform="translate(-209.85 -110.68)"/><path class="cls-27" d="M630,227.16a19.61,19.61,0,0,0,4.27-1.46,4.43,4.43,0,0,0,1.76-1.39,3.55,3.55,0,0,1-.81,2.09A14.72,14.72,0,0,1,630,227.16Z" transform="translate(-209.85 -110.68)"/><path class="cls-32" d="M641,173.25s-4.17,10.63-11.9,11.6-3.83-11.7-3.83-11.7c.07-.68.11-1.34.15-2,.26-4.81-.12-8.45,0-8.83l14.15-8.81a68.33,68.33,0,0,0,.08,8.07C640,167.7,641,173.25,641,173.25Z" transform="translate(-209.85 -110.68)"/><path class="cls-33" d="M639.64,161.58c-1.59,4.14-5.38,8.74-14.26,9.57.26-4.81-.12-8.45,0-8.83l14.15-8.81A68.33,68.33,0,0,0,639.64,161.58Z" transform="translate(-209.85 -110.68)"/><path class="cls-32" d="M630.1,121.54c-9.89,0-12.42,7-12.42,21.15s.69,21.15,9.43,21.15,13-6.47,14.15-12.25S648.62,121.54,630.1,121.54Z" transform="translate(-209.85 -110.68)"/><path class="cls-15" d="M632.94,154.85s-.31.36-.83.86a13.6,13.6,0,0,1-3.19,2.35c-1.61.83-3.44,1.18-5,0a6.18,6.18,0,0,1-1.79-2.21c-.15-.29-.29-.59-.43-.91A19.74,19.74,0,0,0,632.94,154.85Z" transform="translate(-209.85 -110.68)"/><path class="cls-34" d="M632.94,154.85s-.31.36-.83.86a13,13,0,0,1-5.35,1.11,10.24,10.24,0,0,1-4.68-1c-.15-.29-.29-.59-.43-.91A19.74,19.74,0,0,0,632.94,154.85Z" transform="translate(-209.85 -110.68)"/><path class="cls-35" d="M628.92,158.06c-1.61.83-3.44,1.18-5,0A4.65,4.65,0,0,1,628.92,158.06Z" transform="translate(-209.85 -110.68)"/><path class="cls-15" d="M632.12,143.81c0,1.38-.83,2.51-1.85,2.51s-1.85-1.13-1.85-2.51.83-2.51,1.85-2.51S632.12,142.42,632.12,143.81Z" transform="translate(-209.85 -110.68)"/><path class="cls-34" d="M631.2,143a.62.62,0,1,1-1.22,0,.62.62,0,1,1,1.22,0Z" transform="translate(-209.85 -110.68)"/><ellipse class="cls-15" cx="411.28" cy="33.13" rx="1.85" ry="2.51"/><path class="cls-34" d="M622.07,143a.62.62,0,1,1-1.22,0,.62.62,0,1,1,1.22,0Z" transform="translate(-209.85 -110.68)"/><path class="cls-15" d="M623.48,143.6a6.5,6.5,0,0,1,0,4.71c-1,2.54-2.5,4.37-.33,4.82a5.14,5.14,0,0,0,2.49-.07s-2.55.07-2.79-1.13S625.78,147.54,623.48,143.6Z" transform="translate(-209.85 -110.68)"/><path class="cls-15" d="M618.42,139.39s2.3-1.42,4.48,1.48C622.9,140.87,622.25,135.3,618.42,139.39Z" transform="translate(-209.85 -110.68)"/><path class="cls-15" d="M635.8,139.39a10.92,10.92,0,0,0-8.78,1.48S628.3,135.3,635.8,139.39Z" transform="translate(-209.85 -110.68)"/><path class="cls-15" d="M653.43,131.45a17.57,17.57,0,0,1-2.85,8.12c-6,9.48-8.75,8.2-8.75,8.2l-1.73-5.31a34.23,34.23,0,0,1-9-3.94,22.57,22.57,0,0,1-4.81-4l-.13-.12a15.15,15.15,0,0,1-4-8.64c-4.07,1.34-6.34,0-6.34,0a14.08,14.08,0,0,0,.95,6.5c-.08,2.86-1.95,1.85-1.95,1.85-3.73-2.12-3.74-6.81-3.74-6.81A12.58,12.58,0,0,0,614.55,139a11.6,11.6,0,0,1-5.27-10.49c.35-9.47,7.37-8.08,7.37-8.08a60,60,0,0,1,7.39-2.77,12.4,12.4,0,0,1,7.44.21,16,16,0,0,1,11.5-.1C650,120.17,653.84,125.31,653.43,131.45Z" transform="translate(-209.85 -110.68)"/><path class="cls-16" d="M653.43,131.45a17.57,17.57,0,0,1-2.85,8.12c-6,9.48-8.75,8.2-8.75,8.2l-1.73-5.31a34.23,34.23,0,0,1-9-3.94,22.57,22.57,0,0,1-4.81-4c.65.57,3.6,2.85,9.68,3.3a27.72,27.72,0,0,1-3.89-6.18c.32.35,5.62,5.94,11.1,6.53,5.65.62-3.91-8.38-3.91-8.38a13.31,13.31,0,0,1,7.81,4.89c3.22,4.19,5.22-3,1.5-8.92A9.81,9.81,0,0,1,653.43,131.45Z" transform="translate(-209.85 -110.68)"/><path class="cls-15" d="M622.16,125.81s-4.38,3.83-4.5,14.7a12.55,12.55,0,0,1-3.11-1.55,12.58,12.58,0,0,1-3.47-11.63s0,4.69,3.74,6.81c0,0,1.87,1,1.95-1.85a14.08,14.08,0,0,1-.95-6.5S618.09,127.15,622.16,125.81Z" transform="translate(-209.85 -110.68)"/><path class="cls-16" d="M622.16,125.81s-4.38,3.83-4.5,14.7a12.55,12.55,0,0,1-3.11-1.55,12.58,12.58,0,0,1-3.47-11.63s0,4.69,3.74,6.81c0,0,1.87,1,1.95-1.85a14.08,14.08,0,0,1-.95-6.5S618.09,127.15,622.16,125.81Z" transform="translate(-209.85 -110.68)"/><path class="cls-32" d="M641.56,144.7c-.08-.27,1.57-2.27,4.17-1.75s1.83,11.7-5.47,10.65Z" transform="translate(-209.85 -110.68)"/><path class="cls-33" d="M641.66,149.19s.7-3.8,2.67-4.22,2.32,1.87,2.32,1.87-1.83,5.94-4.61,5.65c0,0,1.27-1.4.82-2.43S641.66,149.19,641.66,149.19Z" transform="translate(-209.85 -110.68)"/><path class="cls-15" d="M642,152.49s1.18-1.22.93-2.11-1.52-.91-1.52-.91.19-4.27,2.72-4.89,2.48,2.26,2.48,2.26-.46-2.1-2.21-1.73-2,3.8-2,3.8S645.43,150,642,152.49Z" transform="translate(-209.85 -110.68)"/><path class="cls-3" d="M490.43,404.77c-.59-.15-38.12,2.21-33.58,5.75s26.39,2.65,46.78,2.65h39.58c20.68,0,40.62-6,40.47-6.63s-2.93-2.36-24.63-2.21-23,.59-34.9.59S490.43,404.77,490.43,404.77Z" transform="translate(-209.85 -110.68)"/><path class="cls-36" d="M517.52,176.22c-.2,5.6-9.71,54.4-12.4,64.57s-9.3,17.85-11.35,20.34-6,16.19-15.92,14.95c-6.82-.85-9-6.64-8.61-11.45a10.17,10.17,0,0,1,1.8-5.36c3.1-3.94,12-18.9,12-18.9a9.54,9.54,0,0,0,1.85-3.94c.22-1.87,3.52-4.36,3.52-4.36s5.78-24.29,10.95-39c3.24-9.28,7.81-13.79,10.74-15.85a11.47,11.47,0,0,1,2.9-1.59Z" transform="translate(-209.85 -110.68)"/><path class="cls-37" d="M517.52,176.22c-.2,5.6-9.71,54.4-12.4,64.57s-9.3,17.85-11.35,20.34-6,16.19-15.92,14.95c-6.82-.85-9-6.64-8.61-11.45,11.7-9.7,16,2.39,17.85-4.25s-1.48-16.32,1.05-18.43,5.27,2.54,4.64-2.56-3.8-4.24-2.31-5.5,4,1.7,6.53-8.27,12.23-43.24,12.23-43.24a50.69,50.69,0,0,1,.85-5.19,11.47,11.47,0,0,1,2.9-1.59Z" transform="translate(-209.85 -110.68)"/><path class="cls-33" d="M479.22,266.37c-4.08-2.16-9.66,2.15-14.38,7.76s1.07,10.79,3.44,12.95,7.94.86,9.23-2.16,7.57-6.23,6.43-13.81A5.52,5.52,0,0,0,479.22,266.37Z" transform="translate(-209.85 -110.68)"/><path class="cls-10" d="M517.31,347.91s-2.48-4.56-15.7-4.56-16.32,1.86-16.32,1.86-.21,8.93,14.46,9.55S517.31,347.91,517.31,347.91Z" transform="translate(-209.85 -110.68)"/><path class="cls-11" d="M513.6,322.79c-1,9.77.62,35.09.62,35.09H491.08s-.6-2.14-1.38-5.67c-1.68-7.5-4.21-21.34-3.79-34.61.62-19.51,13.64-55.22,13.64-55.22L502,260.3l28.3,2.7-1.74,5.61C524.47,282,514.41,315,513.6,322.79Z" transform="translate(-209.85 -110.68)"/><path class="cls-11" d="M502.85,264.45a76.25,76.25,0,0,0,9.3,24.09s18.39,4.15,31.2,2.49c0,0,9.71-14.12,11.57-28.44S501,249.51,502.85,264.45Z" transform="translate(-209.85 -110.68)"/><path class="cls-12" d="M514.22,357.88H491.08s-.6-2.14-1.38-5.67c12.49-.66,17.88-4.33,16.45-15.57-1.61-12.6-12.9-10.62-7.17-19.8s19.71-29.18,10.58-34-10.75-9,2.15-9.9a49.73,49.73,0,0,0,16.88-4.28c-4.12,13.34-14.18,46.43-15,54.18C512.56,332.56,514.22,357.88,514.22,357.88Z" transform="translate(-209.85 -110.68)"/><path class="cls-10" d="M545.21,343.35s11.36-.63,17.56,2.28c0,0-14.67,13.7-32.85,2.08C529.92,347.71,534.67,344,545.21,343.35Z" transform="translate(-209.85 -110.68)"/><path class="cls-11" d="M561.52,357.47c0,.83-21.68,0-21.68,0s-3.08-6.93-6.38-15.7a182.72,182.72,0,0,1-6.24-19.39c-3.71-15.16-7.15-53.36-7-54.39,1.42-10.79,30.85-20.79,36.07-7.08a6.42,6.42,0,0,1,.29.84c4.33,15,.61,26.17.61,26.17s-4.74,21.58-3.71,33.63S561.52,356.63,561.52,357.47Z" transform="translate(-209.85 -110.68)"/><path class="cls-12" d="M561.52,357.47c0,.83-21.68,0-21.68,0s-3.08-6.93-6.38-15.7c5.88-3.43,4.27-6.16,13.79-26.48,11.51-24.58,7.66-52.71,7.66-52.71.46-.6.92-1.15,1.37-1.67a6.42,6.42,0,0,1,.29.84c4.33,15,.61,26.17.61,26.17s-4.74,21.58-3.71,33.63S561.52,356.63,561.52,357.47Z" transform="translate(-209.85 -110.68)"/><path class="cls-13" d="M570.82,405.22s-22.52,4.35-29.13,4.56-16.32.21-16.32.21a4.77,4.77,0,0,1,.49-4.34c.88-1.34,2.66-2.69,6.12-3.55,6-1.51,11.16-7.31,14-11.12,1.46-2,2.31-3.41,2.31-3.41l-.2-.44-18.17-39.41c.53.15,11.35,3.41,22.7,1.4a33,33,0,0,0,10.14-3.5s6,45.47,6.2,46.93S570.82,405.22,570.82,405.22Z" transform="translate(-209.85 -110.68)"/><path class="cls-10" d="M570.82,405.22s-22.52,4.35-29.13,4.56-16.32.21-16.32.21a4.77,4.77,0,0,1,.49-4.34c8.25-2.32,29.74-3.57,30.77-8.12,1-4.39-8.76-6.23-10.64-6.55,1.46-2,2.31-3.41,2.31-3.41l-.2-.44c3-.72,10.1-3,11.83-8.54,1.57-5.06-4-20.77-7.3-29.47a33,33,0,0,0,10.14-3.5s6,45.47,6.2,46.93S570.82,405.22,570.82,405.22Z" transform="translate(-209.85 -110.68)"/><path class="cls-13" d="M514.42,410c-.2.62-47.93,0-47.93,0a5.7,5.7,0,0,1-.21-3.55c.49-1.65,2-3.46,6-4.34,5.34-1.17,11.75-5.66,15.75-8.81,2.2-1.72,3.69-3.05,3.87-3.22h0l-6.61-44.84s3.78,4.93,13.68,6.08c.46.06.92.1,1.41.14,10.95.83,16.94-3.52,16.94-3.52s-3.32,38.81-3.52,41.94S514.63,409.36,514.42,410Z" transform="translate(-209.85 -110.68)"/><path class="cls-10" d="M514.42,410c-.2.62-47.93,0-47.93,0a5.7,5.7,0,0,1-.21-3.55c10.68-.32,32.74-1.53,31.41-6-1.19-4-6.44-6.16-9.67-7.11,2.2-1.72,3.69-3.05,3.87-3.22h0s11.05,6.59,10.83-10.58A132.4,132.4,0,0,0,499,351.3c.46.06.92.1,1.41.14,10.95.83,16.94-3.52,16.94-3.52s-3.32,38.81-3.52,41.94S514.63,409.36,514.42,410Z" transform="translate(-209.85 -110.68)"/><path class="cls-36" d="M529.76,168.36s-8.54,1.16-18.7,9-8.83,70-9,83.93c0,0,28.3,8.51,54.54.42,0,0,9.37-70,5.86-79.12S541.58,168,529.76,168.36Z" transform="translate(-209.85 -110.68)"/><path class="cls-37" d="M518.26,173.05s-4.14,15-3.6,24.94c0,0,19.06-1.45,26.26.36,0,0,5.39-17.53,11.33-21.87s4.67,1.27,4.67,1.27-6.83,15.54-6.29,27.65-2.7,11.2-11.15,12.83-34.17-10.66-34.17-10.66L513.94,175Z" transform="translate(-209.85 -110.68)"/><path class="cls-11" d="M554.5,173.94s-9,2.18-11.87,27.92c0,0-15.69-4.48-30.36-1.57,0,0,2-18.14,6.12-28.11l-5.7,2.35s-4.81,10.32-6.87,26.93L502.65,203a399.55,399.55,0,0,0-3.1,59.38s7.23,5.6,32.64,4.15,26.44-3.94,26.44-3.94,2.48-32.6,2.9-50.66a21.41,21.41,0,0,1-13.23-6.64s.19-23.35,10.32-29.16Z" transform="translate(-209.85 -110.68)"/><path class="cls-38" d="M511.27,206.27a2.32,2.32,0,1,1-2.32-2.33A2.32,2.32,0,0,1,511.27,206.27Z" transform="translate(-209.85 -110.68)"/><path class="cls-38" d="M546.28,208.53A2.32,2.32,0,1,1,544,206.2,2.32,2.32,0,0,1,546.28,208.53Z" transform="translate(-209.85 -110.68)"/><path class="cls-38" d="M507.57,224.35s18.19,4.86,33.08,1.36l-1,30.33s-5.61,5-17.61,4.66-13.73-7-13.73-7Z" transform="translate(-209.85 -110.68)"/><path class="cls-12" d="M558.58,275.62l-2.17,1.81a124.57,124.57,0,0,0-15.64,9.4c-8.81,6.14-23.56,6.33-17.09.54s17.44-18.62,2.88-17.53-18.71-4.71-5.93-6.87,18.69-8.68,24.28-20.78,5.51-34.34,5.15-35.06a17.6,17.6,0,0,1,3.47,2.17c1.38,10.88-.43,42.17-.43,42.17C559.17,262.87,558.58,275.62,558.58,275.62Z" transform="translate(-209.85 -110.68)"/><path class="cls-36" d="M576.19,248.47c-2.05,5.19-23.55,23-28.92,28.85s-12.19,9.35-18.38,5.61c-5.69-3.42-4.42-12.25-2.75-15.46a4.2,4.2,0,0,1,.48-.73c1.85-2.28,21.06-21.59,21.06-21.59s3.72-2.91,2.89-5,1.45-4.79,1.45-4.79a191.43,191.43,0,0,0-1-27.6c-1.65-13.08-1.27-27.06,7.44-27.4,7.66-.31,12.6,15.07,15.37,31.33C576.65,228.32,577.23,245.84,576.19,248.47Z" transform="translate(-209.85 -110.68)"/><path class="cls-37" d="M576.19,248.47c-2.05,5.19-23.55,23-28.92,28.85s-12.19,9.35-18.38,5.61c-5.69-3.42-4.42-12.25-2.75-15.46,13.33-6.7,17,4.35,17,4.35s16.81-9.28,17.19-17.28-10.91-11-4.26-10.58,13.13,7.24,11.66.92-15.73-10.41-5.56-7.8,8.88,13.38,12.21,3.53c1.67-5,.77-17.53-.54-28.9C576.65,228.32,577.23,245.84,576.19,248.47Z" transform="translate(-209.85 -110.68)"/><path class="cls-39" d="M540.19,275.65a23.23,23.23,0,0,1-.58,3.75s0,0,0,.07c-.05.23-.12.46-.18.7a16.71,16.71,0,0,1-2.95,6.1c-1.14,1.39-2.21,1.71-3.12,1.55a8.29,8.29,0,0,1-3,1.63c-1.94.42-2.15,0-2.15,0a9.69,9.69,0,0,1-3.58,2.56,3.8,3.8,0,0,1-3.34-.4s-3.38,1.93-5.52.86-4.51-9.06-4.73-10.57a6,6,0,0,1,.28-1.75c.88-3.16,3.5-9.09,5.73-10.11,2.79-1.31,13.74-3,13.74-3C536.54,265.72,540,269.17,540.19,275.65Z" transform="translate(-209.85 -110.68)"/><path class="cls-33" d="M539.41,280.17a16.71,16.71,0,0,1-2.95,6.1c-1.14,1.39-2.21,1.71-3.12,1.55a8.29,8.29,0,0,1-3,1.63c-1.94.42-2.15,0-2.15,0a9.69,9.69,0,0,1-3.58,2.56,3.8,3.8,0,0,1-3.34-.4s-3.38,1.93-5.52.86-4.51-9.06-4.73-10.57a6,6,0,0,1,.28-1.75,3.36,3.36,0,0,0,.85,1c2.69,2.13,1.34-2.46,4.82-3.57s5.2,4.36,4.57,6.66-4.34,4.11-3.71,5.39,3.48,0,4-.8,1.68-5.67,1.87-6.4c-.08.75-.63,5.75.25,6.48s3.63-.31,4.82-4.76,1-1.65,1,1.43,2.61,2.3,4-2.13,1.17-1.9.86,1.51C534.4,287.94,537.5,284.29,539.41,280.17Z" transform="translate(-209.85 -110.68)"/><path class="cls-39" d="M540.19,275.65a10.57,10.57,0,0,1-.58,3.75A23.23,23.23,0,0,0,540.19,275.65Z" transform="translate(-209.85 -110.68)"/><path class="cls-40" d="M473,276.94l-7.8,2.73L443.1,332l-8.34,2.37s-.55,7.47.18,7.29,12-3.65,12-3.65l22.2-52.72,7.55-3.06S477.57,278.4,473,276.94Z" transform="translate(-209.85 -110.68)"/><path class="cls-40" d="M521.07,284.91l-8.92,3.63-26.28,62.38s-13.3,4.1-14.17,4.32-.2-8.64-.2-8.64l9.87-2.8,4.93-11.65,21.26-50.25,8.65-3,.58-.2C522.16,280.39,521.07,284.91,521.07,284.91Z" transform="translate(-209.85 -110.68)"/><path class="cls-41" d="M521.07,284.91l-8.92,3.63-26.28,62.38s-13.3,4.1-14.17,4.32-.2-8.64-.2-8.64l9.87-2.8,4.93-11.65c2.3-.75,5.65-2,6.74-3.25,1.71-2,16.11-41.68,16.84-42.41s6.1-2,7.07-3.93c.61-1.22-.11-2.73-.74-3.69l.58-.2C522.16,280.39,521.07,284.91,521.07,284.91Z" transform="translate(-209.85 -110.68)"/><polygon class="cls-42" points="131.08 209.81 226.03 175.89 226.92 231.41 157.93 250.81 131.08 209.81"/><polygon class="cls-42" points="284.14 188.44 226.03 175.89 226.92 231.41 266.36 244.15 284.14 188.44"/><path class="cls-4" d="M470.4,290.87s3.57-18.08,16.2-22.56-3.56,10.91-6.54,16.88S470.4,290.87,470.4,290.87Z" transform="translate(-209.85 -110.68)"/><path class="cls-7" d="M472,289.22c-.27.39,6.69-13.29,14-17.47A218.72,218.72,0,0,0,472,289.22Z" transform="translate(-209.85 -110.68)"/><path class="cls-29" d="M477.14,293.27a6.79,6.79,0,0,1-.35,2.67c-1.49,4-10.1,13-26.61,17a94.08,94.08,0,0,1,8.27-17.51c2.42-3.72,5.18-6.85,8.09-7.89C473.58,285.06,476.88,289.38,477.14,293.27Z" transform="translate(-209.85 -110.68)"/><g class="cls-30"><path class="cls-31" d="M458.85,301.49a44.22,44.22,0,0,0-.39-6A92.7,92.7,0,0,0,450.18,313c16.5-4,25.13-13,26.61-17a6.51,6.51,0,0,0,.34-2.68C469.53,296.29,458.85,307.24,458.85,301.49Z" transform="translate(-209.85 -110.68)"/></g><path class="cls-4" d="M476.94,299.68s6.1-15.38,18.58-16.58,5.35,4.48-2.67,9.11S482.59,299.68,476.94,299.68Z" transform="translate(-209.85 -110.68)"/><path class="cls-7" d="M478.87,298.34s9.81-11.51,17.54-12.55A95.09,95.09,0,0,0,478.87,298.34Z" transform="translate(-209.85 -110.68)"/><path class="cls-29" d="M486.56,309.3c-1,3.69-36.77,5.77-36.77,5.77.46-.46,2.73-3.26,6.2-6.49,4.4-4.08,10.71-8.82,17.62-10.22,3.69-.74,6.41-.4,8.41.55C486.7,301.13,487.28,306.7,486.56,309.3Z" transform="translate(-209.85 -110.68)"/><path class="cls-43" d="M486.56,309.3c-1,3.69-36.77,5.77-36.77,5.77.46-.46,2.73-3.26,6.2-6.49,1.53,2.34,7.93-1.67,17-4.74,5.6-1.9,8-3.67,9-4.93C486.7,301.13,487.28,306.7,486.56,309.3Z" transform="translate(-209.85 -110.68)"/><path class="cls-44" d="M399.53,281.32s-3.22-7.72.09-12.62,6.8-1.12,6.8-1.12l15.32,2a7.52,7.52,0,0,1,5.85-2c3.64.33,6.5,4.09,4.56,11.38S410.73,306.75,399.53,281.32Z" transform="translate(-209.85 -110.68)"/><path class="cls-45" d="M401.51,283.32c-.44-.46-1.06-6.56,1.41-11.14s6.81-7.83,11.82-7.82,5.78,8.31,5.45,12S409.54,291.9,401.51,283.32Z" transform="translate(-209.85 -110.68)"/><path class="cls-46" d="M426.57,278.72c-1.46,7.4-7.62,10.74-12.23,9a10.09,10.09,0,0,1-4.55-2.83c-1.4-1.8-1.54-4.49.63-9,0,0,4.58-7.65,8.94-9.11h0a4.15,4.15,0,0,1,1.4-.23C425.5,266.61,428,271.32,426.57,278.72Z" transform="translate(-209.85 -110.68)"/><path class="cls-44" d="M420.1,280.56c-4.07,4.24-7.87,5.22-10.31,4.34-1.4-1.8-1.54-4.49.63-9,0,0,4.58-7.65,8.94-9.11h0A4.8,4.8,0,0,1,422,268.5C424.71,271.71,425.67,274.78,420.1,280.56Z" transform="translate(-209.85 -110.68)"/><path class="cls-46" d="M417.2,287.62c-.4,0-10.57-.91-10.15-10,.27-5.53,1.39-7.59,2.95-8.44a9.32,9.32,0,0,1,3.41-.78c3.18-.41,3.63,3.16,3.63,3.16a123.47,123.47,0,0,1,.39,14.05A5.58,5.58,0,0,1,417.2,287.62Z" transform="translate(-209.85 -110.68)"/><path class="cls-44" d="M417.43,285.64c-3-.77-7.47-2.85-8.23-8.39-.54-3.87,0-6.43.8-8a9.32,9.32,0,0,1,3.41-.78c3.18-.41,3.63,3.16,3.63,3.16A123.47,123.47,0,0,1,417.43,285.64Z" transform="translate(-209.85 -110.68)"/><path class="cls-46" d="M416.48,269.18s-1.21-.83-3.59,4.41-.61,9.7,3.24,11.28,7.37-7.94,5.88-12A5.61,5.61,0,0,0,416.48,269.18Z" transform="translate(-209.85 -110.68)"/><path class="cls-44" d="M416.57,269.61a9.53,9.53,0,0,0-.58,8.78S420.18,276.21,416.57,269.61Z" transform="translate(-209.85 -110.68)"/><path class="cls-47" d="M432.15,279c-1.94,7.28-21.42,27.75-32.62,2.32a19.39,19.39,0,0,1-1.29-8.8c.41-.11,2.72-.54,5.26,2.09,2.81,2.9,3.48,9.35,5.1,12s10.47,1.33,13.5-1.57c2.8-2.67,9-6.15,10.57-11.8A14.79,14.79,0,0,1,432.15,279Z" transform="translate(-209.85 -110.68)"/><path class="cls-44" d="M375.73,296.59s-6-5.79-4.92-11.61,5.79-3.75,5.79-3.75L391.45,277a7.54,7.54,0,0,1,4.58-4.16c3.47-1.16,7.58,1.15,8.69,8.61S396.08,315.43,375.73,296.59Z" transform="translate(-209.85 -110.68)"/><path class="cls-45" d="M378.33,297.64c-.58-.25-3.56-5.6-3.12-10.79S378.36,277,383,275s8.6,5.31,9.74,8.8S389.1,302.29,378.33,297.64Z" transform="translate(-209.85 -110.68)"/><path class="cls-46" d="M399.49,283.39c1.6,7.37-2.72,12.89-7.64,13.15a9.91,9.91,0,0,1-5.29-.78c-2-1.08-3.2-3.49-3-8.53,0,0,1.17-8.85,4.6-11.93h0a4.32,4.32,0,0,1,1.19-.77C393.72,272.7,397.88,276,399.49,283.39Z" transform="translate(-209.85 -110.68)"/><path class="cls-44" d="M394.3,287.66c-2.06,5.52-5.16,7.95-7.74,8.1-2-1.08-3.2-3.49-3-8.53,0,0,1.17-8.85,4.6-11.93h0a4.84,4.84,0,0,1,3.09.54C395,277.7,397.11,280.13,394.3,287.66Z" transform="translate(-209.85 -110.68)"/><path class="cls-46" d="M394.43,295.3c-.35.19-10.06,3.4-13.26-5.09-1.95-5.18-1.73-7.51-.64-8.91a9.11,9.11,0,0,1,2.82-2.08c2.75-1.66,4.58,1.44,4.58,1.44a123.14,123.14,0,0,1,5.93,12.73A5.78,5.78,0,0,1,394.43,295.3Z" transform="translate(-209.85 -110.68)"/><path class="cls-44" d="M393.86,293.39c-3,.48-8,.37-10.88-4.4-2-3.34-2.51-5.91-2.45-7.69a9.11,9.11,0,0,1,2.82-2.08c2.75-1.66,4.58,1.44,4.58,1.44A123.14,123.14,0,0,1,393.86,293.39Z" transform="translate(-209.85 -110.68)"/><path class="cls-46" d="M386.46,278.68s-1.44-.28-1.54,5.48,3.28,9.14,7.44,9S396,283,393,279.87A5.59,5.59,0,0,0,386.46,278.68Z" transform="translate(-209.85 -110.68)"/><path class="cls-44" d="M386.72,279a9.52,9.52,0,0,0,2.94,8.29S392.64,283.64,386.72,279Z" transform="translate(-209.85 -110.68)"/><path class="cls-47" d="M403.8,288.65c-2.72,9.22-11.06,20.81-24.93,10.56a7.12,7.12,0,0,1,3.77-2.65c3.66-1.05,4.23-3.05,10-4.49C398.16,290.67,402.45,288.83,403.8,288.65Z" transform="translate(-209.85 -110.68)"/><path class="cls-7" d="M358,318.92a9.92,9.92,0,0,1,.81,3.09s-2.43,5.71-8.32,7.06a.16.16,0,0,1-.09,0c-5.94,1.32,4.27-6.18,4.27-6.18s-11.9-2.33-11.91-5.05,12.56,2,12.56,2-4.31-6.12-2.53-8.75C354,309.39,356.5,315,358,318.92Z" transform="translate(-209.85 -110.68)"/><path class="cls-20" d="M350.52,329.08a14.91,14.91,0,0,0,8.85-6.59s-.54-1.58-1.32-3.57C357.46,323.38,353.26,327.14,350.52,329.08Z" transform="translate(-209.85 -110.68)"/><path class="cls-18" d="M393.77,330.09l-1.31-.78c-2.19-1.28-4.7-2.63-7.3-4l-1.73-.86c-3.55-1.75-7.16-3.4-10.21-4.64-.55-.23-1.09-.44-1.61-.64-1.29-.49-2.43-.89-3.38-1.18-9-2.65-14.84,8.13-6.24,13a16.07,16.07,0,0,0,2.64,1.14c.52.18,1.08.35,1.67.52a72.89,72.89,0,0,0,11.05,1.89l1.94.19c2.83.25,5.65.43,8.25.55l1.54.06c5.68.22,9.89.18,9.89.18C400.87,335,398.25,332.81,393.77,330.09Z" transform="translate(-209.85 -110.68)"/><path class="cls-48" d="M359.15,321.87c-1.4,2.24-.35,6.55,3.15,6.75S361.48,318.13,359.15,321.87Z" transform="translate(-209.85 -110.68)"/><path class="cls-49" d="M389.08,335.35l-1.54-.06c.31-1.39.82-3.14,1.48-3.73S389.42,333.23,389.08,335.35Z" transform="translate(-209.85 -110.68)"/><path class="cls-49" d="M379.29,334.74l-1.94-.19c.42-2.44,1.14-5.91,1.9-6.9S379.64,331.65,379.29,334.74Z" transform="translate(-209.85 -110.68)"/><path class="cls-49" d="M366.3,332.66c-.59-.17-1.15-.34-1.67-.52.62-2.41,1.94-7.23,2.87-8.4C368.61,322.36,367.15,328.78,366.3,332.66Z" transform="translate(-209.85 -110.68)"/><path class="cls-49" d="M392.46,329.31l1.31.78c-.84,1.88-1.77,3.67-2,2.89A8,8,0,0,1,392.46,329.31Z" transform="translate(-209.85 -110.68)"/><path class="cls-49" d="M383.43,324.49l1.73.86c-1.4,2.79-3.58,6.92-3.69,5.57C381.37,329.74,382.5,326.74,383.43,324.49Z" transform="translate(-209.85 -110.68)"/><path class="cls-49" d="M369.49,327.78c-.15-1.47,1.34-6.21,2.12-8.57.52.2,1.06.41,1.61.64C371.84,323.58,369.67,329.52,369.49,327.78Z" transform="translate(-209.85 -110.68)"/><g class="cls-50"><path class="cls-51" d="M393.77,330.09c-.41-.26-.86-.52-1.31-.79-2.18-1.27-4.7-2.62-7.3-3.95-.58-.29-1.15-.58-1.74-.86-2.87-1.43-5.78-2.77-8.41-3.89l-1.79-.75c-.08,0-.18-.06-.26-.11l-1.35-.54c-1.28-.48-2.43-.87-3.38-1.16a9,9,0,0,0-5.05-.08,7.86,7.86,0,0,0-2.89,1.53c5.13,5.76,14.17,8.29,11.14,9.8a34.5,34.5,0,0,1-8.08,2.36c.41.17.83.34,1.29.48s1.07.37,1.66.53c.83.22,1.71.43,2.63.63,2.57.53,5.45.94,8.41,1.25l2,.2c2.83.26,5.66.43,8.25.54l1.54.08c5.67.21,9.89.17,9.89.17C400.86,335,398.25,332.8,393.77,330.09Z" transform="translate(-209.85 -110.68)"/></g><path class="cls-52" d="M399,335.53s-4.22,0-9.89-.17l-1.54-.08c-2.59-.11-5.42-.28-8.25-.54l-2-.2c-3-.31-5.84-.72-8.41-1.25a10.7,10.7,0,0,0,4.79-2c2.5-2.19-4.16-8.9-4.16-8.9s1.3-1.13,3.4-2.62c.08.05.18.07.26.11l1.79.75c2.63,1.12,5.54,2.46,8.41,3.89.59.28,1.16.57,1.74.86,2.6,1.33,5.12,2.68,7.3,3.95.45.27.9.53,1.31.79C398.25,332.8,400.86,335,399,335.53Z" transform="translate(-209.85 -110.68)"/><path class="cls-7" d="M360.28,298.62a33.51,33.51,0,0,1-.39,5.37s-5.76,5.32-13.41,4a4.67,4.67,0,0,1-1.81-.56c-2.31-1.6,9.76-4.71,9.76-4.71s-12.95-8.42-11.67-11.63,13.88,8.39,13.88,8.39-2.2-9.3,1.14-11.56C359.86,286.55,360.26,293.32,360.28,298.62Z" transform="translate(-209.85 -110.68)"/><path class="cls-20" d="M344.68,307.47a4.79,4.79,0,0,0,1.81.57c7.64,1.26,13.65-3.56,13.65-3.56s.14-2.66.13-5.86a17.16,17.16,0,0,1-5.84,5.61A25.72,25.72,0,0,1,344.68,307.47Z" transform="translate(-209.85 -110.68)"/><path class="cls-18" d="M376.15,306.45c.51.49,1.05,1,1.6,1.53,3,2.92,6.49,6.59,9.85,10.35l1.64,1.84c2.45,2.81,4.78,5.6,6.75,8.15.41.52.81,1.05,1.18,1.55,4,5.35,6.05,9.24,3.58,8.91,0,0-5-2-11.61-4.93l-1.78-.81c-3-1.38-6.26-2.93-9.48-4.58l-2.21-1.16a91.1,91.1,0,0,1-12.14-7.49c-.63-.49-1.2-1-1.73-1.42a19.21,19.21,0,0,1-2.59-2.61c-7.86-9.81,4.13-19.75,13.5-12.33C373.7,304.24,374.86,305.26,376.15,306.45Z" transform="translate(-209.85 -110.68)"/><path class="cls-48" d="M361.27,303.49c-3.1,2.46-.71,6.05,3.73,4.61s6.37-3.22,5.11-4.37S364.14,301.21,361.27,303.49Z" transform="translate(-209.85 -110.68)"/><path class="cls-49" d="M389.14,333.85l-1.78-.81c1-1.49,2.45-3.32,3.51-3.7S390.56,331.5,389.14,333.85Z" transform="translate(-209.85 -110.68)"/><path class="cls-49" d="M377.88,328.46l-2.21-1.16c1.66-2.67,4.14-6.43,5.51-7.24C382.73,319.15,379.75,325,377.88,328.46Z" transform="translate(-209.85 -110.68)"/><path class="cls-49" d="M363.53,319.81c-.63-.49-1.2-1-1.73-1.42,1.86-2.55,5.7-7.61,7.36-8.54C371.11,308.75,366.36,315.62,363.53,319.81Z" transform="translate(-209.85 -110.68)"/><path class="cls-49" d="M396,328.32c.41.52.81,1.05,1.18,1.55-1.88,1.83-3.82,3.49-3.71,2.47S394.84,329.64,396,328.32Z" transform="translate(-209.85 -110.68)"/><path class="cls-49" d="M387.6,318.33l1.64,1.84c-3,2.63-7.49,6.46-7,4.82C382.7,323.55,385.44,320.54,387.6,318.33Z" transform="translate(-209.85 -110.68)"/><path class="cls-49" d="M369.59,315.56c.53-1.81,4.52-6.68,6.56-9.11.51.49,1.05,1,1.6,1.53C374.35,311.73,369,317.7,369.59,315.56Z" transform="translate(-209.85 -110.68)"/><path class="cls-52" d="M400.75,338.78s-5-1.95-11.61-4.93l-1.78-.81c-3-1.38-6.26-2.93-9.48-4.57-.31-.17-.61-.34-.93-.49s-.85-.45-1.28-.67a93.64,93.64,0,0,1-12.15-7.5c-.62-.49-1.2-1-1.72-1.42a21.08,21.08,0,0,1-2.59-2.6,14.73,14.73,0,0,1-1.17-1.74,24.51,24.51,0,0,0,11,6.35c9.9,2.86,6.28-2.86,4.38-11a60.81,60.81,0,0,1-1.15-6.24c.13.11.28.18.43.29.76.62,1.64,1.38,2.59,2.24.28.25.56.49.83.76.52.49,1.07,1,1.61,1.54,2.71,2.61,5.79,5.85,8.83,9.21l1,1.14c.55.59,1.09,1.22,1.64,1.83s1.2,1.38,1.77,2.06c1.8,2.1,3.48,4.16,5,6.1.41.51.81,1,1.17,1.54C401.18,335.22,403.22,339.11,400.75,338.78Z" transform="translate(-209.85 -110.68)"/><path class="cls-52" d="M400.75,338.78s-5-1.95-11.61-4.93l-1.78-.81c-3-1.38-6.26-2.93-9.48-4.57-.31-.17-.61-.34-.93-.49a6.5,6.5,0,0,0,3.48-.44c2.79-1.21-2.75-12.47-2.75-12.47s4.25,1,8.9,2.13l1,1.14c.55.59,1.09,1.22,1.64,1.83s1.2,1.38,1.77,2.06c1.8,2.1,3.48,4.16,5,6.1.41.51.81,1,1.17,1.54C401.18,335.22,403.22,339.11,400.75,338.78Z" transform="translate(-209.85 -110.68)"/><path class="cls-7" d="M381.93,288.24a19.68,19.68,0,0,1-3.06,3.73s-7.17,1.36-12.47-3.59c-.24-.23-.43-.43-.6-.62-3.4-3.88,9.49.63,9.49.63s-5.75-13.25-3.1-15.09S378.68,287,378.68,287s3.05-8.36,6.81-8.4C387.84,278.6,384.66,284.11,381.93,288.24Z" transform="translate(-209.85 -110.68)"/><path class="cls-20" d="M377.3,290.18c-4.24.77-9.11-1.29-11.5-2.42.17.18.36.38.6.61,5.3,5,12.44,4.32,12.44,4.32s1.46-2,3.09-4.45A12.4,12.4,0,0,1,377.3,290.18Z" transform="translate(-209.85 -110.68)"/><path class="cls-18" d="M394.7,336c0,.24,0,.48,0,.71l0,.69c0,.42-.06.82-.11,1.18a9.41,9.41,0,0,1-.19,1c0,.11-.06.22-.1.32s-.07.2-.11.28a.87.87,0,0,1-.08.14v0a.51.51,0,0,1-.14.18.38.38,0,0,1-.17.14c-.24.16-.56.08-.94-.24h0a.06.06,0,0,1,0,0l0,0c0-.05-.12-.16-.23-.33l0,0c-.19-.26-.44-.64-.76-1.12l-.84-1.24c-.72-1.07-1.61-2.42-2.61-4-.62-1-1.29-2-2-3.12l-.65-1.05c-.11-.17-.22-.33-.31-.49l-1.24-2c-1.26-2.07-2.53-4.25-3.78-6.46-.37-.69-.74-1.37-1.12-2-.8-1.48-1.56-3-2.27-4.42h0a70.79,70.79,0,0,1-3.31-7.7c-.25-.7-.44-1.36-.62-2a17.62,17.62,0,0,1-.67-3.36c-1.07-11.71,13.35-13.22,16.82-2.59.36,1.13.74,2.52,1.13,4.11.15.65.32,1.32.46,2,.62,2.8,1.23,6,1.78,9.41.19,1.23.39,2.48.57,3.74.11.76.22,1.52.32,2.28s.23,1.73.34,2.57.2,1.7.28,2.53c.19,1.64.34,3.24.45,4.75,0,.6.08,1.21.11,1.76v0C394.67,333.24,394.72,334.71,394.7,336Z" transform="translate(-209.85 -110.68)"/><path class="cls-48" d="M377.86,292.41c-3.47.77-4.71,4.36-2.9,6.06s6.75-1.48,10.72,1.18S386.84,290.43,377.86,292.41Z" transform="translate(-209.85 -110.68)"/><path class="cls-49" d="M386.31,330.56c-.32-.5-.65-1-1-1.55,1.55-.63,3.6-1.31,4.63-1.05S388.61,329.47,386.31,330.56Z" transform="translate(-209.85 -110.68)"/><path class="cls-49" d="M380.32,320.53c-.38-.68-.75-1.36-1.12-2,2.66-1.21,6.52-2.84,8-2.76C388.87,315.81,383.56,318.79,380.32,320.53Z" transform="translate(-209.85 -110.68)"/><path class="cls-49" d="M373.6,306.36c-.23-.7-.44-1.36-.61-2,2.75-1,8.34-3,10.11-2.82C385.18,301.7,378,304.58,373.6,306.36Z" transform="translate(-209.85 -110.68)"/><path class="cls-49" d="M394.47,329.82c0,.61.09,1.23.12,1.81-2.4.45-4.76.73-4.15,0S392.9,330.24,394.47,329.82Z" transform="translate(-209.85 -110.68)"/><path class="cls-49" d="M393.08,317.7c.12.76.22,1.52.32,2.28-3.65.51-9.13,1.13-7.9.12S390.27,318.3,393.08,317.7Z" transform="translate(-209.85 -110.68)"/><path class="cls-49" d="M380.5,306.21c1.34-1.14,6.94-2.86,9.78-3.69.15.65.31,1.32.45,2C386.16,305.69,378.93,307.55,380.5,306.21Z" transform="translate(-209.85 -110.68)"/><path class="cls-52" d="M394.7,336c0,.24,0,.48,0,.71l0,.69c0,.42-.06.82-.11,1.18a9.41,9.41,0,0,1-.19,1c0,.11-.06.22-.1.32s-.07.2-.11.28a.87.87,0,0,1-.08.14v0a.51.51,0,0,1-.14.18.38.38,0,0,1-.17.14c-.24.16-.56.08-.94-.24l0,0,0,0-.23-.33,0,0c0-.08-.1-.16-.17-.27s-.37-.52-.59-.85l-.84-1.24-2-3c-.21-.3-.41-.61-.62-.93-.62-1-1.29-2-2-3.12l-.65-1.05-.3-.49-1.25-2c-1.26-2.07-2.53-4.25-3.78-6.46-.37-.69-.74-1.37-1.12-2-.79-1.48-1.56-3-2.28-4.43,1.84,2.38,4.18,5,6.11,5.85a2.39,2.39,0,0,0,1.75.19,12.35,12.35,0,0,0,5.66-4.77,9.86,9.86,0,0,1,2.07-1.38c.19,1.23.39,2.48.57,3.74.11.76.22,1.52.32,2.28s.23,1.73.34,2.57.2,1.7.28,2.53c.19,1.64.34,3.24.45,4.75,0,.6.08,1.21.11,1.76v0C394.67,333.24,394.72,334.71,394.7,336Z" transform="translate(-209.85 -110.68)"/><path class="cls-4" d="M478.81,272.25s-4.44,5.14-7.38,5.73-3.75.79-3.75.79a5.92,5.92,0,0,1-1.47,3.2,9.46,9.46,0,0,1-4.34,2.74,11.52,11.52,0,0,1-9.55-.69s-.69-8.41,6.3-9.89a6.17,6.17,0,0,1,4.17-2.95,9.48,9.48,0,0,1,3.81,0A79,79,0,0,0,478.81,272.25Z" transform="translate(-209.85 -110.68)"/><path class="cls-7" d="M443.72,292.71s8.45-11.6,18-15.69c0,0-11.22,7.85-16.43,16.67Z" transform="translate(-209.85 -110.68)"/><path class="cls-20" d="M466.21,282a9.46,9.46,0,0,1-4.34,2.74,11.52,11.52,0,0,1-9.55-.69s-.69-8.41,6.3-9.89a6.17,6.17,0,0,1,4.17-2.95c-.07,2.24-.87,7-6.06,8.68C450.63,281.79,460.3,285,466.21,282Z" transform="translate(-209.85 -110.68)"/><path class="cls-4" d="M448.6,280.45s-11.07-9.15,2.92-17.65c0,0-.32-5.56,7.81-9.16A99.92,99.92,0,0,0,472,247.11s-4.88,6.53-5,11.11-5.21,8-5.21,8S464.05,279.31,448.6,280.45Z" transform="translate(-209.85 -110.68)"/><path class="cls-7" d="M445,289.44s9.11-28.93,23.26-39.23c0,0-16.11,18.64-22.12,39.56Z" transform="translate(-209.85 -110.68)"/><path class="cls-13" d="M455.05,311.62c-2.12,6.22-5.23,10.75-6.92,10.68a5.6,5.6,0,0,1-6,1.21s-4.69,3-7.93.73c0,0-5.67,2.54-8.31-2.29a9.6,9.6,0,0,1-3.79-1c-2.34-1.13-5-3.55-5.82-8.74-.05-.38-.09-.76-.13-1.17-.48-5.27-.73-11.73.29-16.92,1.09-5.53,3.64-9.61,9-9.23a6.06,6.06,0,0,1,5.11-3.84,6.9,6.9,0,0,1,5.73,2.24,8.63,8.63,0,0,1,6.77-1.6,5.65,5.65,0,0,1,4.63,3.91,1.46,1.46,0,0,1,.06.26s8.74-1.54,9.58,10.78A39.07,39.07,0,0,1,455.05,311.62Z" transform="translate(-209.85 -110.68)"/><path class="cls-22" d="M455.05,311.62c-2.12,6.23-5.23,10.75-6.92,10.68a5.6,5.6,0,0,1-6,1.21s-4.69,3-7.93.73c0,0-5.67,2.54-8.3-2.29a9.62,9.62,0,0,1-3.8-1,9.33,9.33,0,0,1-3.15-2.43l-.34-.41a2.26,2.26,0,0,1-.26-.37c-.11-.14-.2-.29-.3-.44a10.23,10.23,0,0,1-.73-1.4,4,4,0,0,1-.2-.48c-.09-.23-.17-.47-.26-.72a7.27,7.27,0,0,1-.22-.8,16,16,0,0,1-.36-1.68c-.05-.38-.09-.77-.13-1.17-.47-5.27-.73-11.74.3-16.93a6.89,6.89,0,0,0,1.93,3.37c2.15,1.71,3.53,1.21,3.53,1.21a6.77,6.77,0,0,0,2.61,6.79,10.83,10.83,0,0,0,.9-3c-.08,1.14-.44,6.08-.61,9.47,0,.21,0,.43,0,.65,0,.47,0,.92,0,1.29,0,.57,2.46,5.72,6,4.54s6.39-17.11,6.39-17.11-.39,11.67.26,14.91,5.35,1.49,6.38-1.69,1.93-14,1.93-14a27.8,27.8,0,0,1,.51,9.39c-.63,4.86,3.1,5.63,4.65,2.59s1.55-13.67,1.55-13.67,1.35,6.16.64,10.7C452.68,311.75,453.75,312.19,455.05,311.62Z" transform="translate(-209.85 -110.68)"/><path class="cls-21" d="M443.23,290.88a15.89,15.89,0,0,1,2.13,7.65c-.38-5.18-5.1-7.84-6.58-6.93s-1.41,5.42-1.41,6.18c0-.94-.14-7.19-2.71-6.77-2.78.45-7.56,6-7.56,6,.65-2.43,1.4-5.06,2.32-6.18-1.29-.38-4.09-.86-6.71,3.34.29-.68,1.6-8.47,10.33-4.74a8,8,0,0,0-6.06-3.58c6.64-.19,7.61,3.32,8.32,1.57a17.27,17.27,0,0,0,.93-4.08c-.16,2.68,2.23,7.7,5.26,4.59s6.06-2.27,6.06-2.27h.08a1.46,1.46,0,0,1,.06.26,3.27,3.27,0,0,0-1.94,1.7,6.47,6.47,0,0,1,5,5.7C448.45,288.3,441.1,287.64,443.23,290.88Z" transform="translate(-209.85 -110.68)"/><path class="cls-13" d="M424,318.85a13.18,13.18,0,0,1-.19,2.27,8.86,8.86,0,0,1-2,4.48,7.91,7.91,0,0,1-3.89,2.53s-.83,3-2.86,3.82a4.31,4.31,0,0,1-3.81-.41,7.34,7.34,0,0,1-4.74,1.64,10.63,10.63,0,0,1-3.52-.72,20.82,20.82,0,0,1-3.28-1.46s-.95,1.35-5.84-1.09-13.31-10.24-13.31-20.22a20.14,20.14,0,0,1,.32-5.44c.6-2.61,2.08-4.24,5.12-5.19a8.62,8.62,0,0,1,8.83-5.6c2.88-3.19,6.72-4,11.27-3,0,0,5.44-3,9.78,1.09S424,310.93,424,318.85Z" transform="translate(-209.85 -110.68)"/><path class="cls-21" d="M385.76,300.54c-.07.28,5.36,12.28,11.81,18.76s-11.74-3.52-14.21-10.83S385.76,300.54,385.76,300.54Z" transform="translate(-209.85 -110.68)"/><path class="cls-22" d="M421.75,325.6a7.91,7.91,0,0,1-3.89,2.53s-.83,3-2.86,3.82a4.31,4.31,0,0,1-3.81-.41,7.34,7.34,0,0,1-4.74,1.64,10.63,10.63,0,0,1-3.52-.72,20.82,20.82,0,0,1-3.28-1.46s-.95,1.35-5.84-1.09-13.31-10.24-13.31-20.22a20.14,20.14,0,0,1,.32-5.44c.45,3.91,2.67,9.15,9.58,14.59,14,11,20.47,8.85,28.94,6.14A1.94,1.94,0,0,1,421.75,325.6Z" transform="translate(-209.85 -110.68)"/><path class="cls-21" d="M398.91,292.21c.2-.19,1.91-2,6.69-.52s10.77,15.36,10.25,21.55-6.43-6-10.69-11.25S396.82,294.13,398.91,292.21Z" transform="translate(-209.85 -110.68)"/><path class="cls-21" d="M388.62,297.32a5.89,5.89,0,0,1,7.64-1.66c3.56,1.66,9.21,12.92,9.64,17.72s-5.38-.7-10.16-7.42S386.36,299.93,388.62,297.32Z" transform="translate(-209.85 -110.68)"/><path class="cls-21" d="M410.64,291c3.38.09,6.34,2.18,9.46,10.73s2.17,12.92.61,13.45-.61-7.95-4.78-14.32S407.42,290.9,410.64,291Z" transform="translate(-209.85 -110.68)"/><path class="cls-22" d="M423.78,320.09a8.38,8.38,0,0,1-5.92,7s-.82,3-2.85,3.82a4.27,4.27,0,0,1-3.81-.41,7.33,7.33,0,0,1-4.75,1.65,10.83,10.83,0,0,1-3.51-.72,2.07,2.07,0,0,0-1.18-1.12c-2.15-.88-1.51-1.85-1.51-1.85,2.15.17,5.34-1.19,3.19-2.4a4.17,4.17,0,0,1-2.31-3c.63.72,6.05,2.48,7.08-.08.78-1.93-.07-5.15-.54-6.62,1.15,3.12,3.49,6.15,6.43,5.34s3.11-6.53,3.11-7.08a23.56,23.56,0,0,1-.16,7.49s.64,2.39,3.91.55A9,9,0,0,0,423.78,320.09Z" transform="translate(-209.85 -110.68)"/><path class="cls-21" d="M410.68,327.18c.88-.73,2.79,1,1.44,1.84S408.85,328.7,410.68,327.18Z" transform="translate(-209.85 -110.68)"/><path class="cls-53" d="M453.48,344.15s-10.26,43.47-15.28,43.69-19.92-36.65-19.92-36.65l3.54-1.54s11.7,30.07,16.16,30.07c3,0,10.48-33.15,10.48-33.15Z" transform="translate(-209.85 -110.68)"/><path class="cls-40" d="M475,352.39s-10.27,43.46-15.29,43.68-19.92-36.65-19.92-36.65l3.54-1.54S455,388,459.48,388C462.54,388,470,354.8,470,354.8Z" transform="translate(-209.85 -110.68)"/><path class="cls-53" d="M396.34,354.56l-17.17,45.8a2.85,2.85,0,0,0,1.54,3.63h0a2.85,2.85,0,0,0,3.62-1.26l24.91-46.06Z" transform="translate(-209.85 -110.68)"/><ellipse class="cls-54" cx="172.54" cy="289.43" rx="18.13" ry="18.22"/><ellipse class="cls-55" cx="178.52" cy="291.24" rx="18.13" ry="18.22"/><ellipse class="cls-54" cx="178.52" cy="291.24" rx="7.27" ry="7.31"/><path class="cls-40" d="M415.22,358.48,406.81,374l-16.5,30.53a2.81,2.81,0,0,1-2.49,1.49,2.74,2.74,0,0,1-1.12-.23,2.84,2.84,0,0,1-1.54-3.63l9.39-25.06,7.77-20.73Z" transform="translate(-209.85 -110.68)"/><polygon class="cls-53" points="205.37 247.8 196.96 263.32 184.7 266.42 192.47 245.69 205.37 247.8"/><polygon class="cls-53" points="131.08 209.81 175.71 223.48 192.79 262.02 157.93 250.81 131.08 209.81"/><polygon class="cls-40" points="284.14 188.45 283.52 190.38 266.36 244.16 211.42 257.5 192.79 262.02 175.71 223.48 284.14 188.45"/><path class="cls-41" d="M493.37,301.05l-17.15,53.78-54.94,13.34C464.34,344.14,486,313.4,493.37,301.05Z" transform="translate(-209.85 -110.68)"/><path class="cls-39" d="M540.38,172.08s-8.09,10.66-14.78,9.74-2.65-7-2.65-7-.5-2.69-1-5.54c-.58-3.18-1.19-6.56-1.19-6.75l18-12.3.38,5.07Z" transform="translate(-209.85 -110.68)"/><path class="cls-33" d="M539.14,155.33c-1.9,4.27-6.91,12.76-17.2,14-.58-3.18-1.19-6.56-1.19-6.75l18-12.3Z" transform="translate(-209.85 -110.68)"/><path class="cls-39" d="M515.58,122s-4.09,4.59-4.57,14.75-1.45,21,4.09,25.87,17.32-.24,21.9-8.94c0,0,3.12-13.06,2.88-24.91S518.71,110.85,515.58,122Z" transform="translate(-209.85 -110.68)"/><path class="cls-15" d="M520.09,137.22a3,3,0,0,1,1.1-2.48c1.3-1.18,7.34-.37,8.39,2.73C529.58,137.47,524.21,135.61,520.09,137.22Z" transform="translate(-209.85 -110.68)"/><path class="cls-15" d="M515.35,137.22a2.59,2.59,0,0,0-.26-2c-.58-1.18-3.53-.87-4,2.23C511.09,137.47,513.49,135.61,515.35,137.22Z" transform="translate(-209.85 -110.68)"/><path class="cls-15" d="M525,141.52c0,1.39-.82,2.51-1.84,2.51s-1.85-1.12-1.85-2.51.82-2.51,1.85-2.51S525,140.14,525,141.52Z" transform="translate(-209.85 -110.68)"/><path class="cls-34" d="M524,140.66a.62.62,0,1,1-.61-.74A.69.69,0,0,1,524,140.66Z" transform="translate(-209.85 -110.68)"/><path class="cls-15" d="M516.1,141.52c0,1.39-.83,2.51-1.85,2.51s-1.85-1.12-1.85-2.51.83-2.51,1.85-2.51S516.1,140.14,516.1,141.52Z" transform="translate(-209.85 -110.68)"/><path class="cls-34" d="M515.18,140.66a.62.62,0,1,1-.61-.74A.69.69,0,0,1,515.18,140.66Z" transform="translate(-209.85 -110.68)"/><path class="cls-15" d="M517.32,144.45a22.52,22.52,0,0,0-3.67,5.81c-1.19,3.05,3.63,3.23,5.65,1.53,0,0-4.29,1-4.6-1.16C514.48,149,517.32,144.45,517.32,144.45Z" transform="translate(-209.85 -110.68)"/><path class="cls-15" d="M526.52,154.07a7.36,7.36,0,0,1-1.55,3.35c-1.35,1.6-3.79,2.85-8.13,2.43l-.31-1.18-.74-2.85-.45-1.74s4,1.51,11.34-1.66A7,7,0,0,1,526.52,154.07Z" transform="translate(-209.85 -110.68)"/><path class="cls-34" d="M526.52,154.07a18.34,18.34,0,0,1-10.73,1.75l-.45-1.74s4,1.51,11.34-1.66A7,7,0,0,1,526.52,154.07Z" transform="translate(-209.85 -110.68)"/><path class="cls-35" d="M525,157.42c-1.35,1.6-3.79,2.85-8.13,2.43l-.31-1.18a6.11,6.11,0,0,1,.69-.51,8,8,0,0,1,6.71-1A8.73,8.73,0,0,1,525,157.42Z" transform="translate(-209.85 -110.68)"/><path class="cls-56" d="M525,157.42c-1.35,1.6-3.79,2.85-8.13,2.43l-.31-1.18a6.11,6.11,0,0,1,.69-.51,1.85,1.85,0,0,0,.68,1c1.28,1.06,5.28-.22,6-2A8.73,8.73,0,0,1,525,157.42Z" transform="translate(-209.85 -110.68)"/><path class="cls-15" d="M549.79,134.74a31.22,31.22,0,0,1-1.12,5.39c-3.09,10.25-9.72,12.66-9.72,12.66l-.11-9.18L535,145.55l-.2-8.33a5.59,5.59,0,0,1-2.61-2.63c-1.58-3.13-1-7.45-1-7.45s0,0,0,0c-1,.33-19.09,6.72-21.35-2.53a12.92,12.92,0,0,1-.38-2.65c-.36-7.68,6.55-11.3,6.55-11.3.58,3.09,3.08,2.32,14.45,2.52s12.53,7,12.53,7C547.92,121,550.65,127,549.79,134.74Z" transform="translate(-209.85 -110.68)"/><path class="cls-16" d="M539.26,122.36a37,37,0,0,1-8.14,4.78s0,0,0,0c-1,.33-19.09,6.72-21.35-2.53a12.92,12.92,0,0,1-.38-2.65,6.83,6.83,0,0,0,3.23,3.49c5.79,3.25,20-2.58,20-2.58s-2.84.47-8.36-.57-7.4-3.25-7.4-3.25a28.75,28.75,0,0,0,11,1.05c5.88-.67,8.68,1.15,8.68,1.15s-1-3.37-6-3.94-7.34-2.85-7.34-2.85a26,26,0,0,0,9.4,1.62c5.62,0,8.91,1.83,10.26,4.07,0,0-2.06,1.66-7,2.24A27.4,27.4,0,0,0,539.26,122.36Z" transform="translate(-209.85 -110.68)"/><path class="cls-16" d="M549.79,134.74a31.22,31.22,0,0,1-1.12,5.39c-3.09,10.25-9.72,12.66-9.72,12.66l-.11-9.18L535,145.55l-.2-8.33a5.59,5.59,0,0,1-2.61-2.63,17.56,17.56,0,0,0,9.51,2.44s-1.71-.43-3.91-3.87A11.82,11.82,0,0,0,544,135.6a28.88,28.88,0,0,1-2.57-2.93,10,10,0,0,0,5.22,2.38A5.85,5.85,0,0,0,549.79,134.74Z" transform="translate(-209.85 -110.68)"/><path class="cls-39" d="M535.87,146.56l1.27-4.53s3.47-3.24,6.58-.69-1.5,10.78-7.5,12.06Z" transform="translate(-209.85 -110.68)"/><path class="cls-33" d="M538.23,145.93s1.57-3.52,3.58-3.47,1.81,2.37,1.81,2.37-3.16,5.34-5.8,4.4c0,0,1.56-1.06,1.37-2.17S538.23,145.93,538.23,145.93Z" transform="translate(-209.85 -110.68)"/><path class="cls-15" d="M537.82,149.23s1.43-.91,1.4-1.83-1.26-1.25-1.26-1.25,1.18-4.1,3.79-4.1,1.87,2.78,1.87,2.78.06-2.15-1.74-2.2-2.87,3.21-2.87,3.21S541.7,147.61,537.82,149.23Z" transform="translate(-209.85 -110.68)"/></g></g></svg>