<svg width="527" height="451" viewBox="0 0 527 451" fill="none" xmlns="http://www.w3.org/2000/svg">
<circle cx="9.39584" cy="28.1888" r="9.39584" fill="#32BDE3"/>
<circle cx="122.146" cy="28.1888" r="9.39584" fill="#32BDE3"/>
<circle cx="234.896" cy="28.1888" r="9.39584" fill="#32BDE3"/>
<circle cx="347.646" cy="28.1888" r="9.39584" fill="#32BDE3"/>
<circle cx="460.396" cy="28.1888" r="9.39584" fill="#32BDE3"/>
<circle cx="65.7708" cy="9.39584" r="9.39584" fill="#32BDE3"/>
<circle cx="178.521" cy="9.39584" r="9.39584" fill="#32BDE3"/>
<circle cx="291.271" cy="9.39584" r="9.39584" fill="#32BDE3"/>
<circle cx="404.021" cy="9.39584" r="9.39584" fill="#32BDE3"/>
<circle cx="516.771" cy="9.39584" r="9.39584" fill="#32BDE3"/>
<circle cx="9.39584" cy="65.7708" r="9.39584" fill="#32BDE3"/>
<circle cx="122.146" cy="65.7708" r="9.39584" fill="#32BDE3"/>
<circle cx="234.896" cy="65.7708" r="9.39584" fill="#32BDE3"/>
<circle cx="347.646" cy="65.7708" r="9.39584" fill="#32BDE3"/>
<circle cx="460.396" cy="65.7708" r="9.39584" fill="#32BDE3"/>
<circle cx="65.7708" cy="46.9779" r="9.39584" fill="#32BDE3"/>
<circle cx="178.521" cy="46.9779" r="9.39584" fill="#32BDE3"/>
<circle cx="291.271" cy="46.9779" r="9.39584" fill="#32BDE3"/>
<circle cx="404.021" cy="46.9779" r="9.39584" fill="#32BDE3"/>
<circle cx="516.771" cy="46.9779" r="9.39584" fill="#32BDE3"/>
<circle cx="9.39584" cy="103.355" r="9.39584" fill="#32BDE3"/>
<circle cx="122.146" cy="103.355" r="9.39584" fill="#32BDE3"/>
<circle cx="234.896" cy="103.355" r="9.39584" fill="#32BDE3"/>
<circle cx="347.646" cy="103.355" r="9.39584" fill="#32BDE3"/>
<circle cx="460.396" cy="103.355" r="9.39584" fill="#32BDE3"/>
<circle cx="65.7708" cy="84.5638" r="9.39584" fill="#32BDE3"/>
<circle cx="178.521" cy="84.5638" r="9.39584" fill="#32BDE3"/>
<circle cx="291.271" cy="84.5638" r="9.39584" fill="#32BDE3"/>
<circle cx="404.021" cy="84.5638" r="9.39584" fill="#32BDE3"/>
<circle cx="516.771" cy="84.5638" r="9.39584" fill="#32BDE3"/>
<circle cx="9.39584" cy="140.937" r="9.39584" fill="#32BDE3"/>
<circle cx="122.146" cy="140.937" r="9.39584" fill="#32BDE3"/>
<circle cx="234.896" cy="140.937" r="9.39584" fill="#32BDE3"/>
<circle cx="347.646" cy="140.937" r="9.39584" fill="#32BDE3"/>
<circle cx="460.396" cy="140.937" r="9.39584" fill="#32BDE3"/>
<circle cx="65.7708" cy="122.146" r="9.39584" fill="#32BDE3"/>
<circle cx="178.521" cy="122.146" r="9.39584" fill="#32BDE3"/>
<circle cx="291.271" cy="122.146" r="9.39584" fill="#32BDE3"/>
<circle cx="404.021" cy="122.146" r="9.39584" fill="#32BDE3"/>
<circle cx="516.771" cy="122.146" r="9.39584" fill="#32BDE3"/>
<circle cx="9.39584" cy="178.521" r="9.39584" fill="#32BDE3"/>
<circle cx="122.146" cy="178.521" r="9.39584" fill="#32BDE3"/>
<circle cx="234.896" cy="178.521" r="9.39584" fill="#32BDE3"/>
<circle cx="347.646" cy="178.521" r="9.39584" fill="#32BDE3"/>
<circle cx="460.396" cy="178.521" r="9.39584" fill="#32BDE3"/>
<circle cx="65.7708" cy="159.73" r="9.39584" fill="#32BDE3"/>
<circle cx="178.521" cy="159.73" r="9.39584" fill="#32BDE3"/>
<circle cx="291.271" cy="159.73" r="9.39584" fill="#32BDE3"/>
<circle cx="404.021" cy="159.73" r="9.39584" fill="#32BDE3"/>
<circle cx="516.771" cy="159.73" r="9.39584" fill="#32BDE3"/>
<circle cx="9.39584" cy="216.105" r="9.39584" fill="#32BDE3"/>
<circle cx="122.146" cy="216.105" r="9.39584" fill="#32BDE3"/>
<circle cx="234.896" cy="216.105" r="9.39584" fill="#32BDE3"/>
<circle cx="347.646" cy="216.105" r="9.39584" fill="#32BDE3"/>
<circle cx="460.396" cy="216.105" r="9.39584" fill="#32BDE3"/>
<circle cx="65.7708" cy="197.312" r="9.39584" fill="#32BDE3"/>
<circle cx="178.521" cy="197.312" r="9.39584" fill="#32BDE3"/>
<circle cx="291.271" cy="197.312" r="9.39584" fill="#32BDE3"/>
<circle cx="404.021" cy="197.312" r="9.39584" fill="#32BDE3"/>
<circle cx="516.771" cy="197.312" r="9.39584" fill="#32BDE3"/>
<circle cx="9.39584" cy="253.687" r="9.39584" fill="#32BDE3"/>
<circle cx="122.146" cy="253.687" r="9.39584" fill="#32BDE3"/>
<circle cx="234.896" cy="253.687" r="9.39584" fill="#32BDE3"/>
<circle cx="347.646" cy="253.687" r="9.39584" fill="#32BDE3"/>
<circle cx="460.396" cy="253.687" r="9.39584" fill="#32BDE3"/>
<circle cx="65.7708" cy="234.896" r="9.39584" fill="#32BDE3"/>
<circle cx="178.521" cy="234.896" r="9.39584" fill="#32BDE3"/>
<circle cx="291.271" cy="234.896" r="9.39584" fill="#32BDE3"/>
<circle cx="404.021" cy="234.896" r="9.39584" fill="#32BDE3"/>
<circle cx="516.771" cy="234.896" r="9.39584" fill="#32BDE3"/>
<circle cx="9.39584" cy="291.271" r="9.39584" fill="#32BDE3"/>
<circle cx="122.146" cy="291.271" r="9.39584" fill="#32BDE3"/>
<circle cx="234.896" cy="291.271" r="9.39584" fill="#32BDE3"/>
<circle cx="347.646" cy="291.271" r="9.39584" fill="#32BDE3"/>
<circle cx="460.396" cy="291.271" r="9.39584" fill="#32BDE3"/>
<circle cx="65.7708" cy="272.48" r="9.39584" fill="#32BDE3"/>
<circle cx="178.521" cy="272.48" r="9.39584" fill="#32BDE3"/>
<circle cx="291.271" cy="272.48" r="9.39584" fill="#32BDE3"/>
<circle cx="404.021" cy="272.48" r="9.39584" fill="#32BDE3"/>
<circle cx="516.771" cy="272.48" r="9.39584" fill="#32BDE3"/>
<circle cx="9.39584" cy="328.855" r="9.39584" fill="#32BDE3"/>
<circle cx="122.146" cy="328.855" r="9.39584" fill="#32BDE3"/>
<circle cx="234.896" cy="328.855" r="9.39584" fill="#32BDE3"/>
<circle cx="347.646" cy="328.855" r="9.39584" fill="#32BDE3"/>
<circle cx="460.396" cy="328.855" r="9.39584" fill="#32BDE3"/>
<circle cx="65.7708" cy="310.062" r="9.39584" fill="#32BDE3"/>
<circle cx="178.521" cy="310.062" r="9.39584" fill="#32BDE3"/>
<circle cx="291.271" cy="310.062" r="9.39584" fill="#32BDE3"/>
<circle cx="404.021" cy="310.062" r="9.39584" fill="#32BDE3"/>
<circle cx="516.771" cy="310.062" r="9.39584" fill="#32BDE3"/>
<circle cx="9.39584" cy="366.439" r="9.39584" fill="#32BDE3"/>
<circle cx="122.146" cy="366.439" r="9.39584" fill="#32BDE3"/>
<circle cx="234.896" cy="366.439" r="9.39584" fill="#32BDE3"/>
<circle cx="347.646" cy="366.439" r="9.39584" fill="#32BDE3"/>
<circle cx="460.396" cy="366.439" r="9.39584" fill="#32BDE3"/>
<circle cx="65.7708" cy="347.646" r="9.39584" fill="#32BDE3"/>
<circle cx="178.521" cy="347.646" r="9.39584" fill="#32BDE3"/>
<circle cx="291.271" cy="347.646" r="9.39584" fill="#32BDE3"/>
<circle cx="404.021" cy="347.646" r="9.39584" fill="#32BDE3"/>
<circle cx="516.771" cy="347.646" r="9.39584" fill="#32BDE3"/>
<circle cx="9.39584" cy="404.021" r="9.39584" fill="#32BDE3"/>
<circle cx="122.146" cy="404.021" r="9.39584" fill="#32BDE3"/>
<circle cx="234.896" cy="404.021" r="9.39584" fill="#32BDE3"/>
<circle cx="347.646" cy="404.021" r="9.39584" fill="#32BDE3"/>
<circle cx="460.396" cy="404.021" r="9.39584" fill="#32BDE3"/>
<circle cx="65.7708" cy="385.23" r="9.39584" fill="#32BDE3"/>
<circle cx="178.521" cy="385.23" r="9.39584" fill="#32BDE3"/>
<circle cx="291.271" cy="385.23" r="9.39584" fill="#32BDE3"/>
<circle cx="404.021" cy="385.23" r="9.39584" fill="#32BDE3"/>
<circle cx="516.771" cy="385.23" r="9.39584" fill="#32BDE3"/>
<circle cx="9.39584" cy="441.605" r="9.39584" fill="#32BDE3"/>
<circle cx="122.146" cy="441.605" r="9.39584" fill="#32BDE3"/>
<circle cx="234.896" cy="441.605" r="9.39584" fill="#32BDE3"/>
<circle cx="347.646" cy="441.605" r="9.39584" fill="#32BDE3"/>
<circle cx="460.396" cy="441.605" r="9.39584" fill="#32BDE3"/>
<circle cx="65.7708" cy="422.814" r="9.39584" fill="#32BDE3"/>
<circle cx="178.521" cy="422.814" r="9.39584" fill="#32BDE3"/>
<circle cx="291.271" cy="422.814" r="9.39584" fill="#32BDE3"/>
<circle cx="404.021" cy="422.814" r="9.39584" fill="#32BDE3"/>
<circle cx="516.771" cy="422.814" r="9.39584" fill="#32BDE3"/>
</svg>
