<svg width="180" height="26" viewBox="0 0 180 26" fill="none" xmlns="http://www.w3.org/2000/svg">
<path d="M-17.4143 25.826C-15.7241 26.1156 -14.1206 24.9732 -13.8307 23.2741L-13.8304 23.2723L-13.8275 23.2562C-13.8235 23.2344 -13.8163 23.1959 -13.8057 23.1417C-13.7843 23.0333 -13.7492 22.8628 -13.6981 22.639C-13.5958 22.1907 -13.4306 21.5333 -13.1864 20.7373C-12.6945 19.1338 -11.8998 17.0272 -10.6908 14.9489C-8.27464 10.7957 -4.46795 7.12092 1.74794 7.12092C8.21793 7.12092 13.2202 10.9934 19.2279 15.8136L19.5482 16.0707C22.6897 18.5927 26.1425 21.3646 30.1239 23.3149C33.2493 24.8458 36.7005 25.8704 40.5827 25.8704C44.4477 25.8704 47.8856 24.8548 51.0001 23.3351C54.999 21.3838 58.4648 18.6014 61.6171 16.0707L61.9374 15.8136C67.9451 10.9934 72.9474 7.12092 79.4174 7.12092C85.8874 7.12092 90.8896 10.9934 96.8974 15.8136L97.2176 16.0707C100.4 18.6254 103.901 21.4364 107.948 23.3902C111.033 24.8793 114.434 25.8704 118.252 25.8704C122.053 25.8704 125.441 24.8881 128.515 23.4101C132.579 21.4556 136.094 18.634 139.287 16.0707L139.607 15.8136C145.615 10.9934 150.617 7.12092 157.087 7.12092C163.351 7.12092 167.466 10.8514 170.182 15.0694C171.533 17.1686 172.466 19.2918 173.06 20.903C173.355 21.7036 173.563 22.3648 173.694 22.8159C173.759 23.0411 173.805 23.213 173.834 23.3225C173.848 23.3773 173.857 23.4164 173.863 23.4387L173.867 23.454L173.867 23.4573L173.868 23.4587L173.868 23.4598C174.26 25.1373 175.928 26.1799 177.597 25.789C179.268 25.3977 180.307 23.7179 179.918 22.037L176.893 22.7455C179.918 22.037 179.918 22.0344 179.918 22.0344L179.917 22.0314L179.915 22.0241L179.911 22.0044L179.896 21.9447C179.884 21.8961 179.868 21.8299 179.846 21.7473C179.804 21.5822 179.742 21.3512 179.658 21.0638C179.491 20.4895 179.239 19.6859 178.886 18.7287C178.183 16.8245 177.064 14.2603 175.397 11.672C172.077 6.51532 166.289 0.871094 157.087 0.871094C148.259 0.871094 141.66 6.16904 136.052 10.6708L135.732 10.9278C129.724 15.7481 124.722 19.6206 118.252 19.6206C111.782 19.6206 106.78 15.7481 100.772 10.9278L100.452 10.6708C94.8443 6.16904 88.245 0.871094 79.4174 0.871094C70.5897 0.871094 63.9904 6.16903 58.3829 10.6708L58.0627 10.9278C52.0549 15.7481 47.0527 19.6206 40.5827 19.6206C34.1127 19.6206 29.1104 15.7481 23.1027 10.9278L22.7824 10.6708C17.1749 6.16903 10.5756 0.871094 1.74794 0.871094C-7.50242 0.871094 -13.0161 6.57102 -16.0537 11.7925C-17.5715 14.4016 -18.5371 16.9825 -19.1237 18.8945C-19.4188 19.8562 -19.6224 20.6636 -19.7541 21.2407C-19.8201 21.5296 -19.8682 21.7619 -19.9009 21.9281C-19.9173 22.0113 -19.9298 22.078 -19.9388 22.1272L-19.9497 22.1876L-19.9532 22.2077L-19.9544 22.2152L-19.955 22.2182C-19.955 22.2182 -19.9554 22.2209 -16.8927 22.7455L-19.9554 22.2209C-20.2435 23.9222 -19.1058 25.5363 -17.4143 25.826Z" fill="white"/>
</svg>
