<svg width="282" height="145" viewBox="0 0 282 145" fill="none" xmlns="http://www.w3.org/2000/svg">
<path d="M4.82236 46.3173C7.97449 46.8546 10.9651 44.7344 11.5057 41.5807L11.5063 41.5774L11.5117 41.5476C11.5192 41.5072 11.5326 41.4356 11.5524 41.3351C11.5922 41.1339 11.6578 40.8173 11.753 40.402C11.9438 39.57 12.2519 38.3498 12.7073 36.8724C13.6248 33.8962 15.1068 29.9864 17.3617 26.129C21.8678 18.4205 28.9673 11.5999 40.5599 11.5999C52.6264 11.5999 61.9557 18.7873 73.1601 27.7339L73.7574 28.211C79.6163 32.8919 86.0557 38.0367 93.4811 41.6564C99.31 44.4979 105.746 46.3996 112.987 46.3996C120.195 46.3996 126.607 44.5146 132.415 41.6939C139.873 38.0723 146.337 32.9081 152.216 28.211L152.813 27.7339C164.018 18.7873 173.347 11.5999 185.413 11.5999C197.48 11.5999 206.809 18.7873 218.014 27.7339L218.611 28.211C224.546 32.9525 231.076 38.17 238.624 41.7962C244.376 44.5601 250.719 46.3996 257.84 46.3996C264.929 46.3996 271.248 44.5765 276.98 41.8332C284.56 38.2055 291.115 32.9687 297.069 28.211L297.667 27.7339C308.871 18.7873 318.2 11.5999 330.267 11.5999C341.949 11.5999 349.624 18.5239 354.689 26.3526C357.21 30.2487 358.948 34.1894 360.057 37.18C360.608 38.6659 360.994 39.8931 361.239 40.7303C361.361 41.1484 361.447 41.4673 361.5 41.6707C361.526 41.7723 361.544 41.8448 361.554 41.8862L361.561 41.9147L361.563 41.9208L361.563 41.9234L361.564 41.9255C362.294 45.0389 365.405 46.974 368.518 46.2485C371.635 45.5223 373.573 42.4044 372.848 39.2846L367.205 40.5996C372.848 39.2846 372.847 39.2823 372.847 39.2799L372.845 39.2743L372.842 39.2608L372.834 39.2242L372.807 39.1134C372.784 39.0231 372.754 38.9002 372.714 38.747C372.634 38.4406 372.518 38.0119 372.362 37.4783C372.051 36.4125 371.58 34.9209 370.921 33.1444C369.611 29.61 367.524 24.8508 364.416 20.0469C358.223 10.4759 347.429 0 330.267 0C313.803 0 301.496 9.83318 291.038 18.1886L290.44 18.6657C279.236 27.6122 269.907 34.7997 257.84 34.7997C245.774 34.7997 236.444 27.6122 225.24 18.6657L224.643 18.1886C214.185 9.83318 201.877 0 185.413 0C168.95 0 156.642 9.83316 146.184 18.1886L145.587 18.6657C134.382 27.6122 125.053 34.7997 112.987 34.7997C100.92 34.7997 91.5909 27.6122 80.3865 18.6657L79.7892 18.1886C69.3311 9.83316 57.0235 0 40.5599 0C23.308 0 13.0251 10.5793 7.35988 20.2706C4.52911 25.1132 2.72825 29.9033 1.63428 33.452C1.08402 35.237 0.704177 36.7356 0.458542 37.8067C0.335567 38.3429 0.245769 38.774 0.18475 39.0826C0.154228 39.2369 0.130868 39.3608 0.114127 39.452L0.0938967 39.5642L0.087368 39.6015L0.0849778 39.6153L0.083998 39.621C0.0835677 39.6236 0.0831611 39.626 5.79507 40.5996L0.0831609 39.626C-0.454053 42.7837 1.66776 45.7795 4.82236 46.3173Z" fill="white"/>
<path d="M11.5057 90.8803C10.9651 94.034 7.97449 96.1542 4.82236 95.6168C1.66776 95.0791 -0.454053 92.0833 0.0831609 88.9255L5.79507 89.8992C0.0831611 88.9255 0.0835677 88.9231 0.083998 88.9206L0.0849778 88.9149L0.087368 88.901L0.0938967 88.8638L0.114127 88.7516C0.130868 88.6603 0.154228 88.5365 0.18475 88.3821C0.245769 88.0736 0.335567 87.6425 0.458542 87.1062C0.704177 86.0351 1.08402 84.5366 1.63428 82.7516C2.72825 79.2028 4.52911 74.4127 7.35988 69.5702C13.0251 59.8788 23.308 49.2996 40.5599 49.2996C57.0235 49.2996 69.3311 59.1327 79.7892 67.4881L80.3865 67.9652C91.5909 76.9118 100.92 84.0992 112.987 84.0992C125.053 84.0992 134.382 76.9118 145.587 67.9652L146.184 67.4881C156.642 59.1327 168.95 49.2996 185.413 49.2996C201.877 49.2996 214.185 59.1327 224.643 67.4882L225.24 67.9652C236.444 76.9118 245.774 84.0992 257.84 84.0992C269.907 84.0992 279.236 76.9118 290.44 67.9652L291.038 67.4882C301.496 59.1327 313.803 49.2996 330.267 49.2996C347.429 49.2996 358.223 59.7754 364.416 69.3465C367.524 74.1504 369.611 78.9096 370.921 82.444C371.58 84.2205 372.051 85.712 372.362 86.7779C372.518 87.3114 372.634 87.7401 372.714 88.0465C372.754 88.1998 372.784 88.3227 372.807 88.4129L372.834 88.5237L372.842 88.5603L372.845 88.5739L372.847 88.5794C372.847 88.5818 372.848 88.5842 367.205 89.8992L372.848 88.5842C373.573 91.704 371.635 94.8218 368.518 95.5481C365.405 96.2735 362.294 94.3385 361.564 91.225L361.563 91.223L361.563 91.2204L361.561 91.2142L361.554 91.1858C361.544 91.1444 361.526 91.0718 361.5 90.9702C361.447 90.7669 361.361 90.4479 361.239 90.0299C360.994 89.1926 360.608 87.9655 360.057 86.4795C358.948 83.489 357.21 79.5482 354.689 75.6522C349.624 67.8234 341.949 60.8995 330.267 60.8995C318.2 60.8995 308.871 68.0869 297.667 77.0335L297.069 77.5105C291.115 82.2682 284.56 87.5051 276.98 91.1327C271.248 93.876 264.929 95.6991 257.84 95.6991C250.719 95.6991 244.376 93.8596 238.624 91.0958C231.076 87.4695 224.546 82.2521 218.611 77.5105L218.014 77.0335C206.809 68.0869 197.48 60.8995 185.413 60.8995C173.347 60.8995 164.018 68.0869 152.813 77.0335L152.216 77.5106C146.337 82.2077 139.873 87.3718 132.415 90.9935C126.607 93.8141 120.195 95.6991 112.987 95.6991C105.746 95.6991 99.31 93.7974 93.4811 90.956C86.0557 87.3362 79.6163 82.1915 73.7574 77.5106L73.1601 77.0335C61.9557 68.0869 52.6264 60.8995 40.5599 60.8995C28.9673 60.8995 21.8678 67.72 17.3617 75.4286C15.1068 79.2859 13.6248 83.1957 12.7073 86.1719C12.2519 87.6494 11.9438 88.8696 11.753 89.7016C11.6578 90.1169 11.5922 90.4334 11.5524 90.6346C11.5326 90.7352 11.5192 90.8067 11.5117 90.8472L11.5063 90.877L11.5057 90.8803Z" fill="white"/>
<path d="M11.5063 140.177L11.506 140.178C10.9662 143.333 7.97509 145.454 4.82236 144.916C1.66776 144.379 -0.454053 141.383 0.0831609 138.225L5.79507 139.199C0.0831611 138.225 0.0835677 138.223 0.083998 138.22L0.0849778 138.214L0.087368 138.201L0.0938967 138.163L0.114127 138.051C0.130868 137.96 0.154228 137.836 0.18475 137.682C0.245769 137.373 0.335567 136.942 0.458542 136.406C0.704177 135.335 1.08402 133.836 1.63428 132.051C2.72825 128.502 4.52911 123.712 7.35988 118.87C13.0251 109.178 23.308 98.5991 40.5599 98.5991C57.0235 98.5991 69.3311 108.432 79.7892 116.788L80.3865 117.265C91.5909 126.211 100.92 133.399 112.987 133.399C125.053 133.399 134.382 126.211 145.587 117.265L146.184 116.788C156.642 108.432 168.95 98.5991 185.413 98.5991C201.877 98.5991 214.185 108.432 224.643 116.788L225.24 117.265C236.444 126.211 245.774 133.399 257.84 133.399C269.907 133.399 279.236 126.211 290.44 117.265L291.038 116.788C301.496 108.432 313.803 98.5991 330.267 98.5991C347.429 98.5991 358.223 109.075 364.416 118.646C367.524 123.45 369.611 128.209 370.921 131.744C371.58 133.52 372.051 135.012 372.362 136.077C372.518 136.611 372.634 137.04 372.714 137.346C372.754 137.499 372.784 137.622 372.807 137.713L372.834 137.823L372.842 137.86L372.845 137.873L372.847 137.879C372.847 137.881 372.848 137.884 367.205 139.199L372.848 137.884C373.573 141.004 371.635 144.121 368.518 144.848C365.405 145.573 362.294 143.638 361.564 140.525L361.563 140.523L361.563 140.52L361.561 140.514L361.554 140.485C361.55 140.467 361.543 140.442 361.536 140.41C361.526 140.372 361.514 140.325 361.5 140.27C361.447 140.066 361.361 139.747 361.239 139.329C360.994 138.492 360.608 137.265 360.057 135.779C358.948 132.789 357.21 128.848 354.689 124.952C349.624 117.123 341.949 110.199 330.267 110.199C318.2 110.199 308.871 117.386 297.667 126.333L297.069 126.81C291.115 131.568 284.56 136.805 276.98 140.432C271.248 143.176 264.929 144.999 257.84 144.999C250.719 144.999 244.376 143.159 238.624 140.395C231.076 136.769 224.546 131.552 218.611 126.81L218.014 126.333C206.809 117.386 197.48 110.199 185.413 110.199C173.347 110.199 164.018 117.386 152.813 126.333L152.216 126.81C146.337 131.507 139.873 136.671 132.415 140.293C126.607 143.114 120.195 144.999 112.987 144.999C105.746 144.999 99.31 143.097 93.4811 140.256C86.0557 136.636 79.6163 131.491 73.7575 126.81L73.1601 126.333C61.9557 117.386 52.6264 110.199 40.5599 110.199C28.9673 110.199 21.8678 117.02 17.3617 124.728C15.1068 128.585 13.6248 132.495 12.7073 135.471C12.2519 136.949 11.9438 138.169 11.753 139.001C11.6578 139.416 11.5922 139.733 11.5524 139.934C11.5326 140.035 11.5192 140.106 11.5117 140.147L11.5063 140.177Z" fill="white"/>
</svg>
