<svg width="269" height="158" viewBox="0 0 269 158" fill="none" xmlns="http://www.w3.org/2000/svg">
<path d="M26.8125 121.822L3.32812 156.051H11.2605L15.7271 149.34H31.1415L32.1549 156.051H40.0372L34.2694 121.822H26.8125ZM19.7058 143.242L28.3639 130.257L30.2532 143.242H19.7058ZM68.1259 121.822H55.3515L46.4307 156.051H59.2801C72.2672 156.051 82.4391 148.078 83.6903 136.631C84.6787 127.72 78.8233 121.822 68.1259 121.822ZM76.0082 137.343C75.1824 144.841 68.9766 149.84 60.7065 149.84H55.389L61.1068 127.895H66.3742C73.0805 127.958 76.6463 131.619 76.0082 137.343ZM111.841 121.822H94.9758L86.2177 156.051H93.5495L96.7775 143.554H103.033L110.127 156.051H118.886L110.991 142.542C116.421 140.717 120.475 136.406 121 131.107C121.663 125.471 118.135 121.822 111.841 121.822ZM113.405 131.994C113.055 135.281 110.303 137.38 106.849 137.38H98.3164L100.731 128.008H109.214C112.017 128.008 113.681 129.457 113.405 131.994ZM134.012 121.822L125.254 156.051H132.623L141.381 121.822H134.012ZM163.014 121.822L139.868 156.051H147.762L152.154 149.34H167.656L168.732 156.051H176.627L170.508 121.822H163.014ZM156.108 143.242L164.653 130.257L166.655 143.242H156.108ZM183.921 121.822L182.357 127.958H193.78L186.724 156.051H194.055L201.099 127.958H212.435L213.949 121.822H183.921ZM212.698 156.051H220.03L228.512 121.822H221.193L212.698 156.051ZM253.135 127.683C256.388 127.695 259.567 128.655 262.281 130.445L265.772 124.309C262.389 122.144 258.44 121.031 254.424 121.109C242.125 121.109 232.266 129.42 231.052 141.654C230.164 150.702 235.682 156.751 245.678 156.751C250.192 156.66 254.627 155.553 258.653 153.514L258.177 147.378C254.922 149.105 251.314 150.067 247.63 150.19C241.187 150.19 237.771 145.916 239.047 139.542C239.581 136.225 241.284 133.207 243.848 131.032C246.413 128.858 249.671 127.67 253.035 127.683H253.135Z" fill="white"/>
<path d="M121.1 95.7137L118.76 104.712H129.457C130.826 104.79 132.194 104.557 133.46 104.031C134.725 103.505 135.855 102.699 136.764 101.675L141.644 95.5137C139.254 95.5137 136.877 95.4263 134.5 95.4263C130.037 95.4263 125.57 95.5221 121.1 95.7137ZM169.52 84.6788L191.14 1.96094L117.759 82.0294C110.679 82.6919 103.644 83.7643 96.6894 85.2412L134.575 43.8885L129.032 65.1334L141.819 51.4867L154.756 1.96094L72.0415 92.227C64.7019 94.8418 57.517 97.8709 50.5215 101.3C77.9328 94.1045 106.157 90.4629 134.5 90.4649C142.615 90.4649 150.677 90.7607 158.685 91.3522L155.306 104.712H164.452C165.817 104.79 167.182 104.558 168.444 104.032C169.705 103.506 170.831 102.7 171.734 101.675L178.09 93.3517C191.703 95.1691 205.191 97.8236 218.478 101.3C202.959 93.639 186.498 88.0507 169.52 84.6788ZM160.686 83.1667C152.739 81.9869 144.722 81.3398 136.689 81.2296L170.958 43.8385L160.686 83.1667Z" fill="white"/>
</svg>
